<svg width="19" height="18" viewBox="0 0 19 18" fill="none" xmlns="http://www.w3.org/2000/svg">
<path fill-rule="evenodd" clip-rule="evenodd" d="M0.969482 2.24648C0.969482 1.41814 1.64098 0.746643 2.46932 0.746643H17.4677C18.296 0.746643 18.9675 1.41814 18.9675 2.24648C18.9675 3.07482 18.296 3.74632 17.4677 3.74632H2.46932C1.64098 3.74632 0.969482 3.07482 0.969482 2.24648ZM0.969512 8.99574C0.969512 8.1674 1.64101 7.4959 2.46935 7.4959H17.4677C18.296 7.4959 18.9675 8.1674 18.9675 8.99574C18.9675 9.82407 18.296 10.4956 17.4677 10.4956H2.46935C1.64101 10.4956 0.969512 9.82407 0.969512 8.99574ZM2.46935 14.2452C1.64101 14.2452 0.969512 14.9167 0.969512 15.745C0.969512 16.5733 1.64101 17.2448 2.46935 17.2448H17.4677C18.296 17.2448 18.9675 16.5733 18.9675 15.745C18.9675 14.9167 18.296 14.2452 17.4677 14.2452H2.46935Z" fill="#999999"/>
</svg>
