<svg width="9" height="9" viewBox="0 0 9 9" fill="none" xmlns="http://www.w3.org/2000/svg">
<path d="M4.66711 1.2162C5.76408 1.2162 5.894 1.22038 6.32721 1.24014C6.72776 1.25842 6.94529 1.32535 7.09008 1.3816C7.28182 1.45613 7.4187 1.54517 7.56245 1.68892C7.70621 1.83268 7.79525 1.96955 7.86976 2.1613C7.92602 2.30608 7.99295 2.52361 8.01123 2.92415C8.03099 3.35737 8.03517 3.4873 8.03517 4.58427C8.03517 5.68124 8.03099 5.81116 8.01123 6.24437C7.99295 6.64492 7.92602 6.86245 7.86976 7.00724C7.79525 7.19899 7.70621 7.33586 7.56245 7.47961C7.4187 7.62337 7.28182 7.71241 7.09008 7.78692C6.94529 7.84318 6.72776 7.91011 6.32721 7.92839C5.89407 7.94816 5.76414 7.95233 4.66711 7.95233C3.57007 7.95233 3.44014 7.94816 3.00701 7.92839C2.60645 7.91011 2.38892 7.84318 2.24415 7.78692C2.05239 7.71241 1.91551 7.62337 1.77176 7.47961C1.62801 7.33586 1.53896 7.19899 1.46445 7.00724C1.40819 6.86245 1.34126 6.64492 1.32298 6.24438C1.30322 5.81116 1.29904 5.68124 1.29904 4.58427C1.29904 3.4873 1.30322 3.35737 1.32298 2.92417C1.34126 2.52361 1.40819 2.30608 1.46445 2.1613C1.53896 1.96955 1.62801 1.83268 1.77176 1.68892C1.91551 1.54517 2.05239 1.45613 2.24415 1.3816C2.38892 1.32535 2.60645 1.25842 3.00699 1.24014C3.44021 1.22038 3.57014 1.2162 4.66711 1.2162ZM4.66711 0.475952C3.55135 0.475952 3.41146 0.480681 2.97326 0.500675C2.53597 0.520636 2.23734 0.590075 1.976 0.691641C1.70584 0.796632 1.47673 0.937108 1.24834 1.1655C1.01995 1.39389 0.879471 1.623 0.77448 1.89316C0.672914 2.1545 0.603475 2.45313 0.583514 2.89043C0.56352 3.3286 0.558807 3.46851 0.558807 4.58427C0.558807 5.70002 0.56352 5.83993 0.583514 6.27811C0.603475 6.71541 0.672914 7.01404 0.77448 7.27537C0.879471 7.54551 1.01995 7.77464 1.24834 8.00303C1.47673 8.23143 1.70584 8.3719 1.976 8.47689C2.23734 8.57846 2.53597 8.6479 2.97326 8.66786C3.41146 8.68785 3.55135 8.69256 4.66711 8.69256C5.78286 8.69256 5.92277 8.68785 6.36095 8.66786C6.79824 8.6479 7.09688 8.57846 7.35821 8.47689C7.62837 8.3719 7.85748 8.23143 8.08587 8.00303C8.31426 7.77464 8.45474 7.54553 8.55973 7.27537C8.6613 7.01404 8.73074 6.71541 8.7507 6.27811C8.77069 5.83993 8.77542 5.70002 8.77542 4.58427C8.77542 3.46851 8.77069 3.3286 8.7507 2.89043C8.73074 2.45313 8.6613 2.1545 8.55973 1.89316C8.45474 1.623 8.31426 1.39389 8.08587 1.1655C7.85748 0.937108 7.62837 0.796632 7.35821 0.691641C7.09688 0.590075 6.79824 0.520636 6.36095 0.500675C5.92277 0.480681 5.78286 0.475952 4.66711 0.475952ZM4.66711 2.47459C3.50197 2.47459 2.55743 3.41913 2.55743 4.58427C2.55743 5.7494 3.50197 6.69394 4.66711 6.69394C5.83224 6.69394 6.77678 5.7494 6.77678 4.58427C6.77678 3.41913 5.83224 2.47459 4.66711 2.47459ZM4.66711 5.95371C3.91079 5.95371 3.29766 5.34058 3.29766 4.58427C3.29766 3.82795 3.91079 3.21482 4.66711 3.21482C5.42342 3.21482 6.03655 3.82795 6.03655 4.58427C6.03655 5.34058 5.42342 5.95371 4.66711 5.95371ZM7.35312 2.39124C7.35312 2.66352 7.13241 2.88424 6.86013 2.88424C6.58786 2.88424 6.36713 2.66352 6.36713 2.39124C6.36713 2.11896 6.58786 1.89825 6.86013 1.89825C7.13241 1.89825 7.35312 2.11896 7.35312 2.39124Z" fill="#999999"/>
</svg>
