<svg width="91" height="17" viewBox="0 0 91 17" fill="none" xmlns="http://www.w3.org/2000/svg">
<path fill-rule="evenodd" clip-rule="evenodd" d="M4.63097 3.17938C3.54605 4.28376 2.65058 6.24282 2.16979 7.76989C2.01837 8.25083 1.50574 8.51796 1.0248 8.36654C0.543863 8.21511 0.276737 7.70248 0.428159 7.22155C0.938111 5.60186 1.94031 3.31281 3.32844 1.89979C4.02788 1.1878 4.9294 0.593459 6.00534 0.564917C7.11094 0.535588 8.14359 1.10763 9.07475 2.17562C9.64075 2.82479 10.0249 3.4673 10.1573 4.12017C10.2987 4.81747 10.1347 5.43743 9.77774 5.95141C9.44536 6.43004 8.96477 6.79151 8.49471 7.07857C8.01817 7.36959 7.47403 7.62977 6.95951 7.87109C6.91996 7.88964 6.88061 7.90808 6.84148 7.92642C5.7987 8.41512 4.90613 8.83342 4.3365 9.37317C4.06285 9.63246 3.91254 9.87839 3.85044 10.1264C3.78968 10.369 3.79019 10.7054 3.97894 11.1908C4.35711 12.1634 5.3038 13.0936 6.62832 13.8271C7.93701 14.5519 9.50524 15.0216 10.9483 15.1411C12.4222 15.2631 13.5991 15.0091 14.2734 14.4887C14.5917 14.2431 14.8104 13.9312 14.9177 13.5259C15.028 13.1091 15.0346 12.5361 14.8225 11.7634C14.4258 10.3179 13.5489 9.62857 12.5386 9.34414C11.4701 9.04331 10.1984 9.18917 9.15043 9.58254C8.63198 9.77714 8.20891 10.0176 7.91955 10.2538C7.77571 10.3711 7.67883 10.4761 7.61909 10.5599C7.59403 10.5951 7.57803 10.6229 7.56791 10.6433C7.58301 10.6569 7.60539 10.675 7.63792 10.698C7.84994 10.8476 8.31804 11.0432 9.20548 11.1738C9.70431 11.2472 10.0492 11.7111 9.97574 12.21C9.90232 12.7088 9.4384 13.0537 8.93957 12.9802C7.94077 12.8332 7.14067 12.5819 6.58507 12.1898C5.98173 11.764 5.62008 11.1207 5.75318 10.3672C5.8669 9.72346 6.31278 9.20821 6.76517 8.83906C7.24076 8.45099 7.84832 8.12099 8.50877 7.87309C9.81859 7.38142 11.4977 7.15419 13.0334 7.58655C14.6274 8.0353 16.0083 9.18541 16.5833 11.2801C16.857 12.2773 16.8958 13.1881 16.6828 13.993C16.4668 14.8096 16.0067 15.4575 15.389 15.9342C14.1914 16.8585 12.4675 17.0991 10.7977 16.9608C9.09707 16.82 7.27866 16.2745 5.74372 15.4245C4.22461 14.5832 2.87067 13.3789 2.27715 11.8526C1.98005 11.0885 1.90911 10.3621 2.07922 9.68281C2.24799 9.00889 2.63085 8.47392 3.08062 8.04775C3.87452 7.2955 5.0241 6.75927 5.9675 6.31922C6.04107 6.2849 6.11338 6.25117 6.18417 6.21797C6.70564 5.97339 7.16357 5.75202 7.54306 5.52026C7.92904 5.28455 8.15846 5.08203 8.27799 4.90992C8.37297 4.77314 8.40277 4.65559 8.36778 4.48304C8.32378 4.26607 8.16134 3.90642 7.69849 3.37556C6.98348 2.55549 6.43095 2.38018 6.05376 2.39019C5.64691 2.40098 5.16806 2.63266 4.63097 3.17938ZM7.53943 10.6119C7.53996 10.6119 7.54238 10.6148 7.54505 10.6203C7.54023 10.6146 7.53889 10.6118 7.53943 10.6119Z" fill="white"/>
<path d="M23.8819 13.5407C23.72 13.5407 23.5836 13.4853 23.4729 13.3746C23.3621 13.2638 23.3067 13.1274 23.3067 12.9656V7.48233C23.3067 7.32043 23.3621 7.1841 23.4729 7.07333C23.5836 6.95403 23.72 6.89439 23.8819 6.89439C24.0438 6.89439 24.1801 6.95403 24.2909 7.07333C24.4102 7.1841 24.4698 7.32043 24.4698 7.48233V8.00637C24.7936 7.64849 25.143 7.36304 25.5179 7.15001C25.8928 6.93699 26.3359 6.83048 26.8472 6.83048C27.3158 6.83048 27.7206 6.94125 28.0614 7.1628C28.4108 7.38434 28.6749 7.68683 28.8538 8.07028C29.0413 8.45372 29.135 8.8755 29.135 9.33563V12.9656C29.135 13.1274 29.0754 13.2638 28.9561 13.3746C28.8453 13.4853 28.709 13.5407 28.5471 13.5407C28.3852 13.5407 28.2489 13.4853 28.1381 13.3746C28.0273 13.2638 27.9719 13.1274 27.9719 12.9656V9.46345C27.9719 8.42389 27.5033 7.90412 26.566 7.90412C26.1399 7.90412 25.7565 8.01489 25.4156 8.23643C25.0833 8.45798 24.7681 8.75621 24.4698 9.13113V12.9656C24.4698 13.1274 24.4102 13.2638 24.2909 13.3746C24.1801 13.4853 24.0438 13.5407 23.8819 13.5407ZM32.633 13.5407C32.4711 13.5407 32.3348 13.4853 32.224 13.3746C32.1133 13.2638 32.0579 13.1274 32.0579 12.9656V7.95524H31.3038C31.1674 7.95524 31.0481 7.90838 30.9459 7.81465C30.8522 7.7124 30.8053 7.5931 30.8053 7.45677C30.8053 7.31191 30.8522 7.19262 30.9459 7.09889C31.0481 7.00516 31.1674 6.95829 31.3038 6.95829H32.0579V6.21697C32.0579 5.70572 32.1473 5.28819 32.3263 4.9644C32.5137 4.63208 32.7523 4.39349 33.042 4.24864C33.3403 4.09526 33.6513 4.01857 33.9751 4.01857C34.3756 4.01857 34.7462 4.10378 35.0871 4.2742C35.1723 4.31681 35.2404 4.38071 35.2916 4.46592C35.3512 4.54261 35.381 4.62782 35.381 4.72155C35.381 4.84936 35.3342 4.9644 35.2404 5.06665C35.1467 5.16038 35.0359 5.20724 34.9081 5.20724C34.8144 5.20724 34.7164 5.19446 34.6142 5.1689C34.4097 5.14334 34.2946 5.13055 34.2691 5.13055C33.9197 5.13055 33.6555 5.2115 33.4766 5.3734C33.3062 5.5353 33.221 5.82927 33.221 6.25532V6.95829H34.8187C34.9635 6.95829 35.0828 7.00516 35.1765 7.09889C35.2703 7.19262 35.3171 7.31191 35.3171 7.45677C35.3171 7.5931 35.2703 7.7124 35.1765 7.81465C35.0828 7.90838 34.9635 7.95524 34.8187 7.95524H33.221V12.9656C33.221 13.1274 33.1613 13.2638 33.042 13.3746C32.9313 13.4853 32.7949 13.5407 32.633 13.5407ZM39.2164 13.6046C37.9723 13.6046 37.3503 13.0422 37.3503 11.9175V7.95524H36.4428C36.3746 7.95524 36.315 7.93394 36.2639 7.89134C36.2212 7.84021 36.1999 7.78056 36.1999 7.7124C36.1999 7.62719 36.2383 7.55476 36.315 7.49511L38.0532 5.79519C38.1299 5.7185 38.2024 5.68015 38.2705 5.68015C38.3387 5.68015 38.3941 5.70572 38.4367 5.75684C38.4878 5.80797 38.5134 5.86761 38.5134 5.93578V6.95829H39.9577C40.1025 6.95829 40.2218 7.00516 40.3156 7.09889C40.4093 7.19262 40.4562 7.31191 40.4562 7.45677C40.4562 7.5931 40.4093 7.7124 40.3156 7.81465C40.2218 7.90838 40.1025 7.95524 39.9577 7.95524H38.5134V11.8152C38.5134 12.1475 38.5901 12.3606 38.7434 12.4543C38.9053 12.5395 39.1056 12.5821 39.3442 12.5821C39.5146 12.5821 39.685 12.5565 39.8554 12.5054C39.8895 12.4969 39.9236 12.4884 39.9577 12.4799C40.0003 12.4713 40.0514 12.4671 40.1111 12.4671C40.2303 12.4671 40.3369 12.5139 40.4306 12.6077C40.5243 12.6929 40.5712 12.7994 40.5712 12.9272C40.5712 13.1232 40.4732 13.2723 40.2772 13.3746C39.9449 13.5279 39.5913 13.6046 39.2164 13.6046ZM43.0615 13.5407C42.8996 13.5407 42.7632 13.4853 42.6525 13.3746C42.5417 13.2638 42.4863 13.1274 42.4863 12.9656V4.67042C42.4863 4.50853 42.5417 4.37219 42.6525 4.26142C42.7632 4.14213 42.8996 4.08248 43.0615 4.08248C43.2319 4.08248 43.3725 4.13787 43.4832 4.24864C43.594 4.35941 43.6494 4.50001 43.6494 4.67042V12.9656C43.6494 13.1274 43.5898 13.2638 43.4705 13.3746C43.3597 13.4853 43.2234 13.5407 43.0615 13.5407ZM47.9698 13.6046C47.5949 13.6046 47.2455 13.5279 46.9217 13.3746C46.6065 13.2212 46.3551 12.9996 46.1676 12.7099C45.9802 12.4117 45.8864 12.0709 45.8864 11.6874C45.8864 11.0569 46.1336 10.5541 46.6278 10.1792C47.1305 9.80429 47.8633 9.61682 48.8262 9.61682H50.3727V9.51457C50.3727 8.95219 50.2321 8.54745 49.9509 8.30034C49.6783 8.05323 49.248 7.92968 48.66 7.92968C48.3362 7.92968 48.0465 7.95524 47.7909 8.00637C47.5438 8.05749 47.2668 8.13418 46.9601 8.23643C46.8919 8.25348 46.8365 8.262 46.7939 8.262C46.6661 8.262 46.5553 8.21513 46.4616 8.1214C46.3679 8.02767 46.321 7.91264 46.321 7.7763C46.321 7.54624 46.4318 7.38434 46.6533 7.29061C47.3776 6.98386 48.1147 6.83048 48.8645 6.83048C49.4525 6.83048 49.9467 6.94977 50.3472 7.18836C50.7562 7.42695 51.0544 7.73796 51.2419 8.1214C51.4378 8.49632 51.5358 8.90533 51.5358 9.34842V12.9656C51.5358 13.1274 51.4762 13.2638 51.3569 13.3746C51.2461 13.4853 51.1098 13.5407 50.9479 13.5407C50.786 13.5407 50.6496 13.4853 50.5389 13.3746C50.4281 13.2638 50.3727 13.1274 50.3727 12.9656V12.6332C49.7422 13.2808 48.9412 13.6046 47.9698 13.6046ZM48.4044 12.5821C48.7793 12.5821 49.1414 12.4926 49.4908 12.3137C49.8402 12.1262 50.1341 11.8962 50.3727 11.6235V10.5499H48.9795C47.6929 10.5499 47.0496 10.8864 47.0496 11.5596C47.0496 11.8664 47.1518 12.1135 47.3563 12.3009C47.5693 12.4884 47.9187 12.5821 48.4044 12.5821ZM54.6995 13.5407C54.5376 13.5407 54.4013 13.4853 54.2905 13.3746C54.1797 13.2638 54.1244 13.1274 54.1244 12.9656V7.48233C54.1244 7.32043 54.1797 7.1841 54.2905 7.07333C54.4013 6.95403 54.5376 6.89439 54.6995 6.89439C54.8614 6.89439 54.9978 6.95403 55.1085 7.07333C55.2278 7.1841 55.2875 7.32043 55.2875 7.48233V8.00637C55.6113 7.64849 55.9606 7.36304 56.3355 7.15001C56.7105 6.93699 57.1535 6.83048 57.6648 6.83048C58.1335 6.83048 58.5382 6.94125 58.879 7.1628C59.2284 7.38434 59.4925 7.68683 59.6715 8.07028C59.8589 8.45372 59.9527 8.8755 59.9527 9.33563V12.9656C59.9527 13.1274 59.893 13.2638 59.7737 13.3746C59.663 13.4853 59.5266 13.5407 59.3647 13.5407C59.2028 13.5407 59.0665 13.4853 58.9557 13.3746C58.845 13.2638 58.7896 13.1274 58.7896 12.9656V9.46345C58.7896 8.42389 58.3209 7.90412 57.3836 7.90412C56.9576 7.90412 56.5741 8.01489 56.2333 8.23643C55.901 8.45798 55.5857 8.75621 55.2875 9.13113V12.9656C55.2875 13.1274 55.2278 13.2638 55.1085 13.3746C54.9978 13.4853 54.8614 13.5407 54.6995 13.5407ZM65.249 13.6046C64.7207 13.6046 64.2179 13.4725 63.7408 13.2084C63.2721 12.9357 62.8887 12.5438 62.5904 12.0325C62.3007 11.5127 62.1559 10.9077 62.1559 10.2176C62.1559 9.52735 62.3007 8.92663 62.5904 8.41537C62.8887 7.8956 63.2721 7.50363 63.7408 7.23948C64.2179 6.96681 64.7207 6.83048 65.249 6.83048C66.084 6.83048 66.8126 7.15428 67.4346 7.80187V4.67042C67.4346 4.50001 67.49 4.35941 67.6007 4.24864C67.72 4.13787 67.8606 4.08248 68.0225 4.08248C68.1844 4.08248 68.3208 4.14213 68.4315 4.26142C68.5423 4.37219 68.5977 4.50853 68.5977 4.67042V12.9656C68.5977 13.1274 68.5423 13.2638 68.4315 13.3746C68.3208 13.4853 68.1844 13.5407 68.0225 13.5407C67.8606 13.5407 67.72 13.4853 67.6007 13.3746C67.49 13.2638 67.4346 13.1274 67.4346 12.9656V12.6332C66.8126 13.2808 66.084 13.6046 65.249 13.6046ZM65.4151 12.5182C65.8071 12.5182 66.1735 12.433 66.5143 12.2626C66.8637 12.0836 67.1704 11.8493 67.4346 11.5596V8.8755C67.1704 8.58579 66.8637 8.35573 66.5143 8.18531C66.1735 8.00637 65.8071 7.9169 65.4151 7.9169C64.7846 7.9169 64.2776 8.11714 63.8941 8.51762C63.5107 8.91811 63.319 9.48475 63.319 10.2176C63.319 10.9504 63.5107 11.517 63.8941 11.9175C64.2776 12.318 64.7846 12.5182 65.4151 12.5182ZM71.804 5.62903C71.6251 5.62903 71.4717 5.56512 71.3439 5.43731C71.2161 5.30949 71.1522 5.15612 71.1522 4.97718V4.92605C71.1522 4.74711 71.2161 4.59374 71.3439 4.46592C71.4717 4.33811 71.6251 4.2742 71.804 4.2742H71.8807C72.0597 4.2742 72.213 4.33811 72.3408 4.46592C72.4687 4.59374 72.5326 4.74711 72.5326 4.92605V4.97718C72.5326 5.15612 72.4687 5.30949 72.3408 5.43731C72.213 5.56512 72.0597 5.62903 71.8807 5.62903H71.804ZM71.8296 13.5407C71.6677 13.5407 71.5314 13.4853 71.4206 13.3746C71.3098 13.2638 71.2544 13.1274 71.2544 12.9656V7.48233C71.2544 7.32043 71.3098 7.1841 71.4206 7.07333C71.5314 6.95403 71.6677 6.89439 71.8296 6.89439C72 6.89439 72.1406 6.94977 72.2514 7.06054C72.3621 7.17132 72.4175 7.31191 72.4175 7.48233V12.9656C72.4175 13.1274 72.3579 13.2638 72.2386 13.3746C72.1278 13.4853 71.9915 13.5407 71.8296 13.5407ZM75.6515 13.5407C75.4896 13.5407 75.3533 13.4853 75.2425 13.3746C75.1317 13.2638 75.0764 13.1274 75.0764 12.9656V7.48233C75.0764 7.32043 75.1317 7.1841 75.2425 7.07333C75.3533 6.95403 75.4896 6.89439 75.6515 6.89439C75.8134 6.89439 75.9498 6.95403 76.0605 7.07333C76.1798 7.1841 76.2395 7.32043 76.2395 7.48233V8.00637C76.5633 7.64849 76.9126 7.36304 77.2875 7.15001C77.6625 6.93699 78.1056 6.83048 78.6168 6.83048C79.0855 6.83048 79.4902 6.94125 79.831 7.1628C80.1804 7.38434 80.4445 7.68683 80.6235 8.07028C80.8109 8.45372 80.9047 8.8755 80.9047 9.33563V12.9656C80.9047 13.1274 80.845 13.2638 80.7257 13.3746C80.615 13.4853 80.4786 13.5407 80.3167 13.5407C80.1548 13.5407 80.0185 13.4853 79.9077 13.3746C79.797 13.2638 79.7416 13.1274 79.7416 12.9656V9.46345C79.7416 8.42389 79.2729 7.90412 78.3356 7.90412C77.9096 7.90412 77.5261 8.01489 77.1853 8.23643C76.853 8.45798 76.5377 8.75621 76.2395 9.13113V12.9656C76.2395 13.1274 76.1798 13.2638 76.0605 13.3746C75.9498 13.4853 75.8134 13.5407 75.6515 13.5407ZM86.5461 16.5443C86.0519 16.5443 85.5534 16.4804 85.0506 16.3526C84.5479 16.2248 84.1346 16.0672 83.8108 15.8797C83.6575 15.786 83.5808 15.6369 83.5808 15.4324C83.5808 15.296 83.6276 15.1725 83.7214 15.0617C83.8236 14.9594 83.9472 14.9083 84.092 14.9083C84.1602 14.9083 84.2369 14.9254 84.3221 14.9594C84.9697 15.2832 85.6727 15.4451 86.431 15.4451C87.7347 15.4451 88.3866 14.7507 88.3866 13.3618V12.5054C87.7816 13.153 87.0531 13.4768 86.201 13.4768C85.6982 13.4768 85.2083 13.3533 84.7311 13.1061C84.2625 12.8505 83.8748 12.4756 83.568 11.9814C83.2612 11.4786 83.1079 10.8694 83.1079 10.1536C83.1079 9.43789 83.2612 8.8329 83.568 8.33868C83.8748 7.83595 84.2625 7.46103 84.7311 7.21392C85.2083 6.95829 85.6982 6.83048 86.201 6.83048C87.0531 6.83048 87.7816 7.15428 88.3866 7.80187V7.48233C88.3866 7.32043 88.442 7.1841 88.5527 7.07333C88.6635 6.95403 88.7999 6.89439 88.9618 6.89439C89.1237 6.89439 89.26 6.95403 89.3708 7.07333C89.4901 7.1841 89.5497 7.32043 89.5497 7.48233V13.1956C89.5497 14.2693 89.2898 15.0958 88.77 15.6752C88.2503 16.2546 87.5089 16.5443 86.5461 16.5443ZM86.4438 12.416C86.8443 12.416 87.1979 12.3307 87.5047 12.1603C87.8114 11.9899 88.1054 11.7598 88.3866 11.4701V8.83716C88.1054 8.54745 87.8114 8.31738 87.5047 8.14696C87.1979 7.97655 86.8443 7.89134 86.4438 7.89134C85.8047 7.89134 85.2807 8.08732 84.8717 8.47928C84.4712 8.86272 84.271 9.42084 84.271 10.1536C84.271 10.8864 84.4712 11.4488 84.8717 11.8408C85.2807 12.2242 85.8047 12.416 86.4438 12.416Z" fill="white"/>
<path d="M23.4729 13.3746L23.7956 13.0518L23.7956 13.0518L23.4729 13.3746ZM23.4729 7.07333L23.7956 7.39611L23.8016 7.39013L23.8074 7.38394L23.4729 7.07333ZM24.2909 7.07333L23.9564 7.38394L23.9679 7.39633L23.9803 7.40783L24.2909 7.07333ZM24.4698 8.00637H24.0133V9.19128L24.8083 8.31263L24.4698 8.00637ZM25.5179 7.15001L25.7434 7.5469L25.5179 7.15001ZM28.0614 7.1628L27.8126 7.54555L27.8169 7.5483L28.0614 7.1628ZM28.8538 8.07028L28.4401 8.26335L28.4437 8.27077L28.8538 8.07028ZM28.9561 13.3746L28.6455 13.0401L28.6393 13.0458L28.6333 13.0518L28.9561 13.3746ZM28.1381 13.3746L27.8153 13.6973L27.8153 13.6973L28.1381 13.3746ZM25.4156 8.23643L25.1669 7.85368L25.1624 7.85662L25.4156 8.23643ZM24.4698 9.13113L24.1126 8.84696L24.0133 8.97172V9.13113H24.4698ZM24.2909 13.3746L23.9803 13.0401L23.9741 13.0458L23.9681 13.0518L24.2909 13.3746ZM23.8819 13.0842C23.8365 13.0842 23.8177 13.0738 23.7956 13.0518L23.1501 13.6973C23.3496 13.8969 23.6034 13.9972 23.8819 13.9972V13.0842ZM23.7956 13.0518C23.7736 13.0298 23.7632 13.0109 23.7632 12.9656H22.8502C22.8502 13.244 22.9506 13.4978 23.1501 13.6973L23.7956 13.0518ZM23.7632 12.9656V7.48233H22.8502V12.9656H23.7632ZM23.7632 7.48233C23.7632 7.43697 23.7736 7.41812 23.7956 7.39611L23.1501 6.75055C22.9506 6.95008 22.8502 7.2039 22.8502 7.48233H23.7632ZM23.8074 7.38394C23.8323 7.35707 23.8477 7.35087 23.8819 7.35087V6.43791C23.5922 6.43791 23.335 6.55099 23.1384 6.76271L23.8074 7.38394ZM23.8819 7.35087C23.916 7.35087 23.9314 7.35707 23.9564 7.38394L24.6254 6.76271C24.4288 6.55099 24.1715 6.43791 23.8819 6.43791V7.35087ZM23.9803 7.40783C24.0071 7.43277 24.0133 7.44816 24.0133 7.48233H24.9263C24.9263 7.1927 24.8132 6.93542 24.6015 6.73882L23.9803 7.40783ZM24.0133 7.48233V8.00637H24.9263V7.48233H24.0133ZM24.8083 8.31263C25.1034 7.98653 25.4154 7.73325 25.7434 7.5469L25.2924 6.75313C24.8705 6.99283 24.4839 7.31045 24.1313 7.70011L24.8083 8.31263ZM25.7434 7.5469C26.0378 7.37962 26.4002 7.28696 26.8472 7.28696V6.374C26.2716 6.374 25.7478 6.49437 25.2924 6.75313L25.7434 7.5469ZM26.8472 7.28696C27.2413 7.28696 27.5566 7.37913 27.8126 7.54553L28.3102 6.78006C27.8845 6.50337 27.3903 6.374 26.8472 6.374V7.28696ZM27.8169 7.5483C28.0909 7.72204 28.2972 7.95695 28.4402 8.26331L29.2675 7.87724C29.0526 7.41671 28.7306 7.04664 28.3059 6.7773L27.8169 7.5483ZM28.4437 8.27077C28.5983 8.58699 28.6786 8.93946 28.6786 9.33563H29.5915C29.5915 8.81155 29.4843 8.32044 29.2639 7.86979L28.4437 8.27077ZM28.6786 9.33563V12.9656H29.5915V9.33563H28.6786ZM28.6786 12.9656C28.6786 12.9997 28.6723 13.0151 28.6455 13.0401L29.2667 13.7091C29.4784 13.5125 29.5915 13.2552 29.5915 12.9656H28.6786ZM28.6333 13.0518C28.6113 13.0738 28.5924 13.0842 28.5471 13.0842V13.9972C28.8255 13.9972 29.0793 13.8969 29.2789 13.6973L28.6333 13.0518ZM28.5471 13.0842C28.5017 13.0842 28.4829 13.0738 28.4609 13.0518L27.8153 13.6973C28.0148 13.8969 28.2686 13.9972 28.5471 13.9972V13.0842ZM28.4609 13.0518C28.4388 13.0298 28.4284 13.0109 28.4284 12.9656H27.5154C27.5154 13.244 27.6158 13.4978 27.8153 13.6973L28.4609 13.0518ZM28.4284 12.9656V9.46345H27.5154V12.9656H28.4284ZM28.4284 9.46345C28.4284 8.88431 28.2989 8.36473 27.9595 7.98828C27.6119 7.60284 27.1179 7.44764 26.566 7.44764V8.3606C26.9514 8.3606 27.1603 8.46528 27.2814 8.59962C27.4106 8.74295 27.5154 9.00303 27.5154 9.46345H28.4284ZM26.566 7.44764C26.0561 7.44764 25.5854 7.58165 25.1669 7.8537L25.6644 8.61917C25.9276 8.44813 26.2238 8.3606 26.566 8.3606V7.44764ZM25.1624 7.85662C24.7837 8.10909 24.4346 8.44211 24.1126 8.84696L24.8271 9.4153C25.1015 9.07031 25.3829 8.80687 25.6689 8.61625L25.1624 7.85662ZM24.0133 9.13113V12.9656H24.9263V9.13113H24.0133ZM24.0133 12.9656C24.0133 12.9997 24.0071 13.0151 23.9803 13.0401L24.6015 13.7091C24.8132 13.5125 24.9263 13.2552 24.9263 12.9656H24.0133ZM23.9681 13.0518C23.9461 13.0738 23.9272 13.0842 23.8819 13.0842V13.9972C24.1603 13.9972 24.4141 13.8969 24.6137 13.6973L23.9681 13.0518ZM32.224 13.3746L32.5468 13.0518L32.5468 13.0518L32.224 13.3746ZM32.0579 7.95524H32.5144V7.49876H32.0579V7.95524ZM30.9459 7.81465L30.6094 8.1231L30.6228 8.13773L30.6374 8.15114L30.9459 7.81465ZM30.9459 7.09889L30.6374 6.76239L30.6301 6.7691L30.6231 6.77611L30.9459 7.09889ZM32.0579 6.95829V7.41477H32.5144V6.95829H32.0579ZM32.3263 4.9644L31.9287 4.74011L31.9268 4.7436L32.3263 4.9644ZM33.042 4.24864L33.2462 4.65695L33.2508 4.65458L33.042 4.24864ZM35.0871 4.2742L34.8829 4.68249L34.8829 4.68249L35.0871 4.2742ZM35.2916 4.46592L34.9001 4.70078L34.9143 4.72441L34.9312 4.74617L35.2916 4.46592ZM35.2404 5.06665L35.5632 5.38943L35.5702 5.38241L35.5769 5.3751L35.2404 5.06665ZM34.6142 5.1689L34.7249 4.72605L34.6981 4.71936L34.6708 4.71594L34.6142 5.1689ZM33.4766 5.3734L33.1703 5.03481L33.1622 5.04245L33.4766 5.3734ZM33.221 6.95829H32.7645V7.41477H33.221V6.95829ZM35.1765 7.09889L34.8538 7.42167L34.8538 7.42167L35.1765 7.09889ZM35.1765 7.81465L35.4993 8.13743L35.5063 8.13041L35.513 8.1231L35.1765 7.81465ZM33.221 7.95524V7.49876H32.7645V7.95524H33.221ZM33.042 13.3746L32.7314 13.0401L32.7252 13.0458L32.7193 13.0518L33.042 13.3746ZM32.633 13.0842C32.5877 13.0842 32.5688 13.0738 32.5468 13.0518L31.9013 13.6973C32.1008 13.8969 32.3546 13.9972 32.633 13.9972V13.0842ZM32.5468 13.0518C32.5248 13.0298 32.5144 13.0109 32.5144 12.9656H31.6014C31.6014 13.244 31.7017 13.4978 31.9013 13.6973L32.5468 13.0518ZM32.5144 12.9656V7.95524H31.6014V12.9656H32.5144ZM32.0579 7.49876H31.3038V8.41172H32.0579V7.49876ZM31.3038 7.49876C31.2838 7.49876 31.274 7.4962 31.2543 7.47815L30.6374 8.15114C30.8223 8.32056 31.051 8.41172 31.3038 8.41172V7.49876ZM31.2824 7.50619C31.2643 7.48651 31.2618 7.47671 31.2618 7.45677H30.3488C30.3488 7.7095 30.44 7.93829 30.6094 8.1231L31.2824 7.50619ZM31.2618 7.45677C31.2618 7.43408 31.2653 7.42558 31.2653 7.42557C31.2654 7.42532 31.2654 7.42527 31.2654 7.42536C31.2654 7.42544 31.2653 7.42548 31.2654 7.42543C31.2654 7.42537 31.2656 7.42507 31.2661 7.4245C31.2665 7.42393 31.2674 7.42298 31.2687 7.42167L30.6231 6.77611C30.4354 6.96381 30.3488 7.20321 30.3488 7.45677H31.2618ZM31.2543 7.43538C31.274 7.41734 31.2838 7.41477 31.3038 7.41477V6.50182C31.051 6.50182 30.8223 6.59298 30.6374 6.76239L31.2543 7.43538ZM31.3038 7.41477H32.0579V6.50182H31.3038V7.41477ZM32.5144 6.95829V6.21697H31.6014V6.95829H32.5144ZM32.5144 6.21697C32.5144 5.75489 32.5958 5.42048 32.7258 5.18519L31.9268 4.7436C31.6989 5.15591 31.6014 5.65654 31.6014 6.21697H32.5144ZM32.7239 5.18867C32.8748 4.92119 33.0515 4.75427 33.2462 4.65692L32.8379 3.84035C32.4532 4.03271 32.1527 4.34297 31.9287 4.74012L32.7239 5.18867ZM33.2508 4.65458C33.4869 4.53319 33.7265 4.47505 33.9751 4.47505V3.56209C33.576 3.56209 33.1937 3.65734 32.8333 3.8427L33.2508 4.65458ZM33.9751 4.47505C34.3084 4.47505 34.6087 4.54538 34.8829 4.68249L35.2912 3.86591C34.8837 3.66218 34.4427 3.56209 33.9751 3.56209V4.47505ZM34.8829 4.68249C34.887 4.68455 34.8917 4.68664 34.9001 4.70078L35.683 4.23107C35.5892 4.07478 35.4575 3.94906 35.2912 3.86591L34.8829 4.68249ZM34.9312 4.74617C34.933 4.74845 34.9304 4.74565 34.9278 4.73814C34.9266 4.73468 34.9257 4.73116 34.9252 4.72789C34.9246 4.72465 34.9246 4.72242 34.9246 4.72155H35.8375C35.8375 4.52239 35.7714 4.33933 35.6519 4.18567L34.9312 4.74617ZM34.9246 4.72155C34.9246 4.72815 34.9237 4.73022 34.9231 4.73146C34.9224 4.7333 34.9185 4.74237 34.9039 4.75819L35.5769 5.3751C35.7407 5.19647 35.8375 4.97374 35.8375 4.72155H34.9246ZM34.9177 4.74387C34.9126 4.74892 34.9094 4.75125 34.9083 4.752C34.9073 4.75269 34.9077 4.75234 34.9092 4.75169C34.9108 4.75104 34.9121 4.75067 34.9128 4.75054C34.9134 4.75042 34.9121 4.75076 34.9081 4.75076V5.66372C35.1619 5.66372 35.3874 5.56522 35.5632 5.38943L34.9177 4.74387ZM34.9081 4.75076C34.856 4.75076 34.7953 4.74366 34.7249 4.72605L34.5034 5.61175C34.6375 5.64526 34.7728 5.66372 34.9081 5.66372V4.75076ZM34.6708 4.71594C34.5678 4.70307 34.4855 4.69319 34.4249 4.68645C34.3789 4.68134 34.3133 4.67408 34.2691 4.67408V5.58703C34.2517 5.58703 34.2439 5.58576 34.2637 5.58755C34.2769 5.58876 34.2967 5.59078 34.3241 5.59383C34.3785 5.59988 34.456 5.60916 34.5575 5.62185L34.6708 4.71594ZM34.2691 4.67408C33.8566 4.67408 33.4641 4.76912 33.1704 5.03491L33.7829 5.7119C33.847 5.65388 33.9828 5.58703 34.2691 5.58703V4.67408ZM33.1622 5.04245C32.8505 5.3386 32.7645 5.7974 32.7645 6.25532H33.6775C33.6775 5.86114 33.7619 5.732 33.791 5.70435L33.1622 5.04245ZM32.7645 6.25532V6.95829H33.6775V6.25532H32.7645ZM33.221 7.41477H34.8187V6.50182H33.221V7.41477ZM34.8187 7.41477C34.8413 7.41477 34.8498 7.41831 34.8499 7.41831C34.8501 7.41841 34.8502 7.41844 34.8501 7.4184C34.85 7.41835 34.8499 7.41832 34.85 7.41836C34.8501 7.4184 34.8504 7.4186 34.8509 7.41906C34.8515 7.41953 34.8524 7.42036 34.8538 7.42167L35.4993 6.77611C35.3116 6.58841 35.0722 6.50182 34.8187 6.50182V7.41477ZM34.8538 7.42167C34.8551 7.42298 34.8559 7.42393 34.8564 7.4245C34.8568 7.42507 34.857 7.42537 34.8571 7.42543C34.8571 7.42548 34.8571 7.42544 34.857 7.42536C34.857 7.42527 34.857 7.42532 34.8571 7.42557C34.8571 7.42558 34.8607 7.43408 34.8607 7.45677H35.7736C35.7736 7.20321 35.687 6.96381 35.4993 6.77611L34.8538 7.42167ZM34.8607 7.45677C34.8607 7.47671 34.8581 7.48651 34.84 7.50619L35.513 8.1231C35.6824 7.93829 35.7736 7.7095 35.7736 7.45677H34.8607ZM34.8538 7.49187C34.8524 7.49318 34.8515 7.494 34.8509 7.49447C34.8504 7.49494 34.8501 7.49514 34.85 7.49518C34.8499 7.49521 34.85 7.49518 34.8501 7.49514C34.8502 7.4951 34.8501 7.49513 34.8499 7.49523C34.8498 7.49523 34.8413 7.49876 34.8187 7.49876V8.41172C35.0722 8.41172 35.3116 8.32513 35.4993 8.13743L34.8538 7.49187ZM34.8187 7.49876H33.221V8.41172H34.8187V7.49876ZM32.7645 7.95524V12.9656H33.6775V7.95524H32.7645ZM32.7645 12.9656C32.7645 12.9997 32.7583 13.0151 32.7314 13.0401L33.3527 13.7091C33.5644 13.5125 33.6775 13.2552 33.6775 12.9656H32.7645ZM32.7193 13.0518C32.6972 13.0738 32.6784 13.0842 32.633 13.0842V13.9972C32.9115 13.9972 33.1653 13.8969 33.3648 13.6973L32.7193 13.0518ZM37.3503 7.95524H37.8068V7.49876H37.3503V7.95524ZM36.2639 7.89134L35.9132 8.18357L35.9397 8.21545L35.9716 8.24201L36.2639 7.89134ZM36.315 7.49511L36.5952 7.85543L36.6156 7.83956L36.6341 7.82147L36.315 7.49511ZM38.0532 5.79519L38.3724 6.12157L38.376 6.11797L38.0532 5.79519ZM38.4367 5.75684L38.086 6.04907L38.0993 6.06498L38.1139 6.07962L38.4367 5.75684ZM38.5134 6.95829H38.0569V7.41477H38.5134V6.95829ZM40.3156 7.09889L39.9928 7.42167L39.9928 7.42167L40.3156 7.09889ZM40.3156 7.81465L40.6383 8.13743L40.6453 8.13041L40.6521 8.1231L40.3156 7.81465ZM38.5134 7.95524V7.49876H38.0569V7.95524H38.5134ZM38.7434 12.4543L38.5054 12.8438L38.5179 12.8514L38.5308 12.8582L38.7434 12.4543ZM39.8554 12.5054L39.7447 12.0626L39.7344 12.0651L39.7243 12.0682L39.8554 12.5054ZM39.9577 12.4799L39.8682 12.0322L39.8575 12.0344L39.847 12.037L39.9577 12.4799ZM40.4306 12.6077L40.1078 12.9305L40.1155 12.9381L40.1235 12.9454L40.4306 12.6077ZM40.2772 13.3746L40.4685 13.789L40.4786 13.7844L40.4884 13.7793L40.2772 13.3746ZM39.2164 13.1481C38.654 13.1481 38.3174 13.02 38.1229 12.8442C37.9372 12.6763 37.8068 12.397 37.8068 11.9175H36.8938C36.8938 12.5628 37.0743 13.127 37.5107 13.5214C37.9382 13.908 38.5347 14.0611 39.2164 14.0611V13.1481ZM37.8068 11.9175V7.95524H36.8938V11.9175H37.8068ZM37.3503 7.49876H36.4428V8.41172H37.3503V7.49876ZM36.4428 7.49876C36.457 7.49876 36.4774 7.50114 36.5005 7.50938C36.5237 7.51768 36.5425 7.52937 36.5561 7.54066L35.9716 8.24201C36.1069 8.35477 36.2707 8.41172 36.4428 8.41172V7.49876ZM36.6145 7.59911C36.6258 7.61265 36.6375 7.63149 36.6458 7.65473C36.6541 7.67781 36.6564 7.69816 36.6564 7.7124H35.7435C35.7435 7.88452 35.8004 8.04826 35.9132 8.18357L36.6145 7.59911ZM36.6564 7.7124C36.6564 7.74118 36.6492 7.7755 36.6321 7.80775C36.616 7.83821 36.5985 7.85287 36.5952 7.85543L36.0347 7.13479C35.8645 7.26717 35.7435 7.46534 35.7435 7.7124H36.6564ZM36.6341 7.82147L38.3724 6.12155L37.7341 5.46883L35.9958 7.16875L36.6341 7.82147ZM38.376 6.11797C38.3919 6.10206 38.3933 6.10462 38.3787 6.11234C38.3623 6.12101 38.3245 6.13663 38.2705 6.13663V5.22368C38.0264 5.22368 37.844 5.35892 37.7305 5.47241L38.376 6.11797ZM38.2705 6.13663C38.2464 6.13663 38.2109 6.13178 38.1719 6.11379C38.1326 6.09566 38.1041 6.07078 38.086 6.04907L38.7874 5.46461C38.6556 5.30653 38.4704 5.22368 38.2705 5.22368V6.13663ZM38.1139 6.07962C38.1031 6.0688 38.0872 6.04906 38.0746 6.01974C38.0618 5.98989 38.0569 5.96034 38.0569 5.93578H38.9699C38.9699 5.73864 38.8904 5.56503 38.7595 5.43406L38.1139 6.07962ZM38.0569 5.93578V6.95829H38.9699V5.93578H38.0569ZM38.5134 7.41477H39.9577V6.50182H38.5134V7.41477ZM39.9577 7.41477C39.9804 7.41477 39.9889 7.41831 39.9889 7.41831C39.9891 7.41841 39.9892 7.41844 39.9891 7.4184C39.989 7.41835 39.989 7.41832 39.989 7.41836C39.9891 7.4184 39.9894 7.4186 39.9899 7.41906C39.9905 7.41953 39.9915 7.42036 39.9928 7.42167L40.6383 6.77611C40.4506 6.58841 40.2112 6.50182 39.9577 6.50182V7.41477ZM39.9928 7.42167C39.9941 7.42298 39.9949 7.42393 39.9954 7.4245C39.9958 7.42507 39.996 7.42537 39.9961 7.42543C39.9961 7.42548 39.9961 7.42544 39.996 7.42536C39.996 7.42527 39.996 7.42532 39.9961 7.42557C39.9961 7.42558 39.9997 7.43408 39.9997 7.45677H40.9126C40.9126 7.20321 40.826 6.96381 40.6383 6.77611L39.9928 7.42167ZM39.9997 7.45677C39.9997 7.47671 39.9971 7.48651 39.9791 7.50619L40.6521 8.1231C40.8215 7.93829 40.9126 7.7095 40.9126 7.45677H39.9997ZM39.9928 7.49187C39.9915 7.49318 39.9905 7.494 39.9899 7.49447C39.9894 7.49494 39.9891 7.49514 39.989 7.49518C39.989 7.49521 39.989 7.49518 39.9891 7.49514C39.9892 7.4951 39.9891 7.49513 39.9889 7.49523C39.9889 7.49523 39.9804 7.49876 39.9577 7.49876V8.41172C40.2112 8.41172 40.4506 8.32513 40.6383 8.13743L39.9928 7.49187ZM39.9577 7.49876H38.5134V8.41172H39.9577V7.49876ZM38.0569 7.95524V11.8152H38.9699V7.95524H38.0569ZM38.0569 11.8152C38.0569 12.1745 38.1327 12.616 38.5054 12.8438L38.9815 12.0648C39.0145 12.0849 39.0129 12.1042 39.0004 12.0696C38.9862 12.0301 38.9699 11.951 38.9699 11.8152H38.0569ZM38.5308 12.8582C38.7752 12.9868 39.0533 13.0386 39.3442 13.0386V12.1256C39.1579 12.1256 39.0355 12.0922 38.956 12.0503L38.5308 12.8582ZM39.3442 13.0386C39.5609 13.0386 39.7755 13.006 39.9866 12.9426L39.7243 12.0682C39.5945 12.1071 39.4682 12.1256 39.3442 12.1256V13.0386ZM39.9661 12.9483C40.0002 12.9397 40.0343 12.9312 40.0684 12.9227L39.847 12.037C39.8129 12.0455 39.7788 12.0541 39.7447 12.0626L39.9661 12.9483ZM40.0472 12.9275C40.0517 12.9266 40.0712 12.9236 40.1111 12.9236V12.0106C40.0316 12.0106 39.9488 12.0161 39.8682 12.0322L40.0472 12.9275ZM40.1111 12.9236C40.1108 12.9236 40.1087 12.9235 40.1054 12.9228C40.102 12.9221 40.0989 12.9211 40.0966 12.92C40.0913 12.9177 40.0954 12.9181 40.1078 12.9305L40.7534 12.2849C40.5845 12.116 40.3654 12.0106 40.1111 12.0106V12.9236ZM40.1235 12.9454C40.1259 12.9476 40.1256 12.9477 40.124 12.9455C40.1223 12.9433 40.1202 12.9398 40.1182 12.9353C40.1163 12.9309 40.1152 12.9271 40.1148 12.9249C40.1144 12.9227 40.1147 12.9232 40.1147 12.9272H41.0277C41.0277 12.6721 40.9275 12.4425 40.7376 12.2699L40.1235 12.9454ZM40.1147 12.9272C40.1147 12.9379 40.1134 12.9417 40.1137 12.9407C40.1141 12.9394 40.1151 12.9371 40.1162 12.9353C40.119 12.9311 40.1114 12.9462 40.0661 12.9698L40.4884 13.7793C40.6391 13.7006 40.7784 13.5901 40.8792 13.4367C40.9819 13.2804 41.0277 13.1052 41.0277 12.9272H40.1147ZM40.0859 12.9601C39.8151 13.0851 39.5269 13.1481 39.2164 13.1481V14.0611C39.6557 14.0611 40.0747 13.9708 40.4685 13.789L40.0859 12.9601ZM42.6525 13.3746L42.9752 13.0518L42.9752 13.0518L42.6525 13.3746ZM42.6525 4.26142L42.9752 4.5842L42.9812 4.57822L42.987 4.57203L42.6525 4.26142ZM43.4832 4.24864L43.806 3.92586L43.806 3.92586L43.4832 4.24864ZM43.4705 13.3746L43.1599 13.0401L43.1537 13.0458L43.1477 13.0518L43.4705 13.3746ZM43.0615 13.0842C43.0161 13.0842 42.9973 13.0738 42.9752 13.0518L42.3297 13.6973C42.5292 13.8969 42.783 13.9972 43.0615 13.9972V13.0842ZM42.9752 13.0518C42.9532 13.0298 42.9428 13.0109 42.9428 12.9656H42.0298C42.0298 13.244 42.1301 13.4978 42.3297 13.6973L42.9752 13.0518ZM42.9428 12.9656V4.67042H42.0298V12.9656H42.9428ZM42.9428 4.67042C42.9428 4.62506 42.9532 4.60622 42.9752 4.5842L42.3297 3.93864C42.1301 4.13817 42.0298 4.39199 42.0298 4.67042H42.9428ZM42.987 4.57203C43.0119 4.54517 43.0273 4.53896 43.0615 4.53896V3.626C42.7718 3.626 42.5146 3.73909 42.318 3.95081L42.987 4.57203ZM43.0615 4.53896C43.1225 4.53896 43.1432 4.5542 43.1605 4.57142L43.806 3.92586C43.6017 3.72153 43.3412 3.626 43.0615 3.626V4.53896ZM43.1605 4.57142C43.1777 4.58863 43.1929 4.60935 43.1929 4.67042H44.1059C44.1059 4.39066 44.0104 4.13018 43.806 3.92586L43.1605 4.57142ZM43.1929 4.67042V12.9656H44.1059V4.67042H43.1929ZM43.1929 12.9656C43.1929 12.9997 43.1867 13.0151 43.1599 13.0401L43.7811 13.7091C43.9928 13.5125 44.1059 13.2552 44.1059 12.9656H43.1929ZM43.1477 13.0518C43.1257 13.0738 43.1068 13.0842 43.0615 13.0842V13.9972C43.3399 13.9972 43.5937 13.8969 43.7932 13.6973L43.1477 13.0518ZM46.9217 13.3746L46.722 13.7851L46.7263 13.7871L46.9217 13.3746ZM46.1676 12.7099L45.7811 12.9529L45.7844 12.9579L46.1676 12.7099ZM46.6278 10.1792L46.3549 9.81327L46.3519 9.81553L46.6278 10.1792ZM50.3727 9.61682V10.0733H50.8292V9.61682H50.3727ZM49.9509 8.30034L49.6444 8.63862L49.6496 8.64323L49.9509 8.30034ZM47.7909 8.00637L47.7014 7.55874L47.6984 7.55936L47.7909 8.00637ZM46.9601 8.23643L47.0708 8.67928L47.0878 8.67503L47.1044 8.66949L46.9601 8.23643ZM46.4616 8.1214L46.7844 7.79862L46.7844 7.79862L46.4616 8.1214ZM46.6533 7.29061L46.8312 7.71101L46.8314 7.71094L46.6533 7.29061ZM50.3472 7.18836L50.1135 7.58054L50.1171 7.58266L50.3472 7.18836ZM51.2419 8.1214L50.8316 8.32196L50.8373 8.33287L51.2419 8.1214ZM51.3569 13.3746L51.0463 13.0401L51.0401 13.0458L51.0341 13.0518L51.3569 13.3746ZM50.5389 13.3746L50.8617 13.0518L50.8617 13.0518L50.5389 13.3746ZM50.3727 12.6332H50.8292V11.5101L50.0457 12.3148L50.3727 12.6332ZM49.4908 12.3137L49.6989 12.7201L49.7066 12.7159L49.4908 12.3137ZM50.3727 11.6235L50.7163 11.9241L50.8292 11.795V11.6235H50.3727ZM50.3727 10.5499H50.8292V10.0934H50.3727V10.5499ZM47.3563 12.3009L47.0478 12.6375L47.0547 12.6436L47.3563 12.3009ZM47.9698 13.1481C47.6593 13.1481 47.377 13.0851 47.1172 12.962L46.7263 13.7871C47.114 13.9707 47.5305 14.0611 47.9698 14.0611V13.1481ZM47.1214 12.9641C46.8798 12.8465 46.6924 12.6806 46.5509 12.4619L45.7844 12.9579C46.0178 13.3187 46.3332 13.5959 46.722 13.785L47.1214 12.9641ZM46.5541 12.467C46.4164 12.2479 46.3429 11.9928 46.3429 11.6874H45.43C45.43 12.1489 45.5439 12.5754 45.7812 12.9528L46.5541 12.467ZM46.3429 11.6874C46.3429 11.1969 46.5254 10.8298 46.9037 10.5429L46.3519 9.81553C45.7417 10.2784 45.43 10.9168 45.43 11.6874H46.3429ZM46.9007 10.5451C47.2924 10.253 47.9121 10.0733 48.8262 10.0733V9.16035C47.8145 9.16035 46.9686 9.3556 46.3549 9.81328L46.9007 10.5451ZM48.8262 10.0733H50.3727V9.16035H48.8262V10.0733ZM50.8292 9.61682V9.51457H49.9162V9.61682H50.8292ZM50.8292 9.51457C50.8292 8.88739 50.6729 8.32712 50.2523 7.95745L49.6496 8.64323C49.7913 8.76778 49.9162 9.017 49.9162 9.51457H50.8292ZM50.2575 7.9621C49.863 7.60462 49.297 7.4732 48.66 7.4732V8.38616C49.1989 8.38616 49.4935 8.50185 49.6444 8.63859L50.2575 7.9621ZM48.66 7.4732C48.313 7.4732 47.9925 7.50052 47.7014 7.55875L47.8804 8.45398C48.1005 8.40997 48.3594 8.38616 48.66 8.38616V7.4732ZM47.6984 7.55936C47.4297 7.61496 47.135 7.69695 46.8157 7.80338L47.1044 8.66949C47.3987 8.57141 47.6579 8.50003 47.8834 8.45338L47.6984 7.55936ZM46.8494 7.79358C46.8257 7.79951 46.8089 7.80277 46.798 7.80444C46.7866 7.80619 46.7861 7.80552 46.7939 7.80552V8.71847C46.8901 8.71847 46.9866 8.70034 47.0708 8.67928L46.8494 7.79358ZM46.7939 7.80552C46.79 7.80552 46.7886 7.80517 46.7892 7.80529C46.7899 7.80542 46.7913 7.80579 46.7929 7.80645C46.7944 7.80709 46.7947 7.80745 46.7937 7.80675C46.7926 7.80601 46.7894 7.80367 46.7844 7.79862L46.1388 8.44418C46.3146 8.61997 46.5401 8.71847 46.7939 8.71847V7.80552ZM46.7844 7.79862C46.7806 7.79484 46.7791 7.79262 46.7787 7.79212C46.7784 7.79168 46.7786 7.79195 46.7789 7.7926C46.7792 7.79323 46.7789 7.79288 46.7785 7.7909C46.7782 7.78882 46.7775 7.78416 46.7775 7.7763H45.8645C45.8645 8.02984 45.9568 8.26215 46.1388 8.44418L46.7844 7.79862ZM46.7775 7.7763C46.7775 7.75542 46.78 7.74444 46.7811 7.74068C46.782 7.73748 46.7821 7.73817 46.7808 7.7401C46.7767 7.74608 46.7826 7.73156 46.8312 7.71101L46.4755 6.87021C46.3025 6.94339 46.1422 7.05668 46.0274 7.22457C45.9115 7.39386 45.8645 7.58557 45.8645 7.7763H46.7775ZM46.8314 7.71094C47.5021 7.42685 48.1788 7.28696 48.8645 7.28696V6.374C48.0505 6.374 47.2531 6.54086 46.4753 6.87028L46.8314 7.71094ZM48.8645 7.28696C49.3914 7.28696 49.7999 7.39371 50.1135 7.58052L50.5808 6.7962C50.0934 6.50584 49.5135 6.374 48.8645 6.374V7.28696ZM50.1171 7.58266C50.4572 7.78099 50.6882 8.02815 50.8318 8.32189L51.6519 7.92091C51.4206 7.44777 51.0552 7.0729 50.5772 6.79406L50.1171 7.58266ZM50.8373 8.33287C50.9975 8.6394 51.0793 8.97537 51.0793 9.34842H51.9923C51.9923 8.83528 51.8781 8.35324 51.6464 7.90994L50.8373 8.33287ZM51.0793 9.34842V12.9656H51.9923V9.34842H51.0793ZM51.0793 12.9656C51.0793 12.9997 51.0731 13.0151 51.0463 13.0401L51.6675 13.7091C51.8792 13.5125 51.9923 13.2552 51.9923 12.9656H51.0793ZM51.0341 13.0518C51.0121 13.0738 50.9932 13.0842 50.9479 13.0842V13.9972C51.2263 13.9972 51.4801 13.8969 51.6797 13.6973L51.0341 13.0518ZM50.9479 13.0842C50.9025 13.0842 50.8837 13.0738 50.8617 13.0518L50.2161 13.6973C50.4156 13.8969 50.6694 13.9972 50.9479 13.9972V13.0842ZM50.8617 13.0518C50.8396 13.0298 50.8292 13.0109 50.8292 12.9656H49.9162C49.9162 13.244 50.0166 13.4978 50.2161 13.6973L50.8617 13.0518ZM50.8292 12.9656V12.6332H49.9162V12.9656H50.8292ZM50.0457 12.3148C49.5079 12.8671 48.8282 13.1481 47.9698 13.1481V14.0611C49.0542 14.0611 49.9764 13.6946 50.6998 12.9517L50.0457 12.3148ZM48.4044 13.0386C48.8551 13.0386 49.2883 12.9303 49.6989 12.72L49.2827 11.9074C48.9946 12.055 48.7035 12.1256 48.4044 12.1256V13.0386ZM49.7066 12.7159C50.0998 12.505 50.4383 12.2418 50.7163 11.9241L50.0292 11.3229C49.83 11.5506 49.5806 11.7475 49.275 11.9115L49.7066 12.7159ZM50.8292 11.6235V10.5499H49.9162V11.6235H50.8292ZM50.3727 10.0934H48.9795V11.0063H50.3727V10.0934ZM48.9795 10.0934C48.3113 10.0934 47.7401 10.1783 47.3204 10.3978C47.1039 10.5111 46.9168 10.6661 46.7852 10.8726C46.6524 11.0809 46.5931 11.3156 46.5931 11.5596H47.506C47.506 11.4671 47.5271 11.4072 47.5552 11.3631C47.5844 11.3172 47.6385 11.2618 47.7437 11.2068C47.9674 11.0897 48.3612 11.0063 48.9795 11.0063V10.0934ZM46.5931 11.5596C46.5931 11.9793 46.7385 12.3538 47.0479 12.6374L47.6648 11.9644C47.5651 11.8731 47.506 11.7534 47.506 11.5596H46.5931ZM47.0547 12.6436C47.3929 12.9412 47.8802 13.0386 48.4044 13.0386V12.1256C47.9572 12.1256 47.7457 12.0355 47.6579 11.9582L47.0547 12.6436ZM54.2905 13.3746L54.6133 13.0518L54.6133 13.0518L54.2905 13.3746ZM54.2905 7.07333L54.6133 7.39611L54.6193 7.39013L54.625 7.38394L54.2905 7.07333ZM55.1085 7.07333L54.774 7.38394L54.7855 7.39633L54.7979 7.40783L55.1085 7.07333ZM55.2875 8.00637H54.831V9.19128L55.626 8.31263L55.2875 8.00637ZM56.3355 7.15001L56.561 7.5469L56.3355 7.15001ZM58.879 7.1628L58.6302 7.54555L58.6346 7.5483L58.879 7.1628ZM59.6715 8.07028L59.2578 8.26335L59.2614 8.27077L59.6715 8.07028ZM59.7737 13.3746L59.4631 13.0401L59.4569 13.0458L59.451 13.0518L59.7737 13.3746ZM58.9557 13.3746L58.6329 13.6973L58.6329 13.6973L58.9557 13.3746ZM56.2333 8.23643L55.9845 7.85368L55.9801 7.85662L56.2333 8.23643ZM55.2875 9.13113L54.9302 8.84696L54.831 8.97172V9.13113H55.2875ZM55.1085 13.3746L54.7979 13.0401L54.7917 13.0458L54.7857 13.0518L55.1085 13.3746ZM54.6995 13.0842C54.6542 13.0842 54.6353 13.0738 54.6133 13.0518L53.9677 13.6973C54.1673 13.8969 54.4211 13.9972 54.6995 13.9972V13.0842ZM54.6133 13.0518C54.5913 13.0298 54.5808 13.0109 54.5808 12.9656H53.6679C53.6679 13.244 53.7682 13.4978 53.9677 13.6973L54.6133 13.0518ZM54.5808 12.9656V7.48233H53.6679V12.9656H54.5808ZM54.5808 7.48233C54.5808 7.43697 54.5913 7.41812 54.6133 7.39611L53.9677 6.75055C53.7682 6.95008 53.6679 7.2039 53.6679 7.48233H54.5808ZM54.625 7.38394C54.65 7.35707 54.6654 7.35087 54.6995 7.35087V6.43791C54.4099 6.43791 54.1526 6.55099 53.956 6.76271L54.625 7.38394ZM54.6995 7.35087C54.7337 7.35087 54.7491 7.35707 54.774 7.38394L55.443 6.76271C55.2464 6.55099 54.9891 6.43791 54.6995 6.43791V7.35087ZM54.7979 7.40783C54.8248 7.43277 54.831 7.44816 54.831 7.48233H55.7439C55.7439 7.1927 55.6309 6.93542 55.4191 6.73882L54.7979 7.40783ZM54.831 7.48233V8.00637H55.7439V7.48233H54.831ZM55.626 8.31263C55.921 7.98653 56.2331 7.73325 56.561 7.5469L56.11 6.75313C55.6882 6.99283 55.3015 7.31045 54.949 7.70011L55.626 8.31263ZM56.561 7.5469C56.8555 7.37962 57.2179 7.28696 57.6648 7.28696V6.374C57.0892 6.374 56.5655 6.49437 56.11 6.75313L56.561 7.5469ZM57.6648 7.28696C58.059 7.28696 58.3743 7.37913 58.6303 7.54553L59.1278 6.78006C58.7021 6.50337 58.2079 6.374 57.6648 6.374V7.28696ZM58.6346 7.5483C58.9086 7.72204 59.1149 7.95695 59.2578 8.26331L60.0851 7.87724C59.8702 7.41671 59.5482 7.04664 59.1235 6.7773L58.6346 7.5483ZM59.2614 8.27077C59.416 8.58699 59.4962 8.93946 59.4962 9.33563H60.4092C60.4092 8.81155 60.3019 8.32044 60.0816 7.86979L59.2614 8.27077ZM59.4962 9.33563V12.9656H60.4092V9.33563H59.4962ZM59.4962 12.9656C59.4962 12.9997 59.49 13.0151 59.4631 13.0401L60.0843 13.7091C60.2961 13.5125 60.4092 13.2552 60.4092 12.9656H59.4962ZM59.451 13.0518C59.4289 13.0738 59.4101 13.0842 59.3647 13.0842V13.9972C59.6432 13.9972 59.897 13.8969 60.0965 13.6973L59.451 13.0518ZM59.3647 13.0842C59.3194 13.0842 59.3005 13.0738 59.2785 13.0518L58.6329 13.6973C58.8325 13.8969 59.0863 13.9972 59.3647 13.9972V13.0842ZM59.2785 13.0518C59.2565 13.0298 59.246 13.0109 59.246 12.9656H58.3331C58.3331 13.244 58.4334 13.4978 58.6329 13.6973L59.2785 13.0518ZM59.246 12.9656V9.46345H58.3331V12.9656H59.246ZM59.246 9.46345C59.246 8.88431 59.1165 8.36473 58.7771 7.98828C58.4296 7.60284 57.9355 7.44764 57.3836 7.44764V8.3606C57.769 8.3606 57.9779 8.46528 58.0991 8.59962C58.2283 8.74295 58.3331 9.00303 58.3331 9.46345H59.246ZM57.3836 7.44764C56.8737 7.44764 56.4031 7.58165 55.9845 7.8537L56.4821 8.61917C56.7452 8.44813 57.0414 8.3606 57.3836 8.3606V7.44764ZM55.9801 7.85662C55.6014 8.10909 55.2523 8.44211 54.9302 8.84696L55.6447 9.4153C55.9191 9.07031 56.2006 8.80687 56.4865 8.61625L55.9801 7.85662ZM54.831 9.13113V12.9656H55.7439V9.13113H54.831ZM54.831 12.9656C54.831 12.9997 54.8248 13.0151 54.7979 13.0401L55.4191 13.7091C55.6309 13.5125 55.7439 13.2552 55.7439 12.9656H54.831ZM54.7857 13.0518C54.7637 13.0738 54.7449 13.0842 54.6995 13.0842V13.9972C54.978 13.9972 55.2318 13.8969 55.4313 13.6973L54.7857 13.0518ZM63.7408 13.2084L63.5112 13.603L63.5197 13.6078L63.7408 13.2084ZM62.5904 12.0325L62.1916 12.2548L62.1961 12.2625L62.5904 12.0325ZM62.5904 8.41537L62.1945 8.18819L62.1933 8.19032L62.5904 8.41537ZM63.7408 7.23948L63.9649 7.63715L63.9672 7.63582L63.7408 7.23948ZM67.4346 7.80187L67.1054 8.11808L67.8911 8.93606V7.80187H67.4346ZM67.6007 4.24864L67.2901 3.91413L67.2839 3.91988L67.278 3.92586L67.6007 4.24864ZM68.4315 4.26142L68.097 4.57203L68.1028 4.57822L68.1088 4.5842L68.4315 4.26142ZM68.4315 13.3746L68.7543 13.6973L68.4315 13.3746ZM67.6007 13.3746L67.278 13.6973L67.2839 13.7033L67.2901 13.7091L67.6007 13.3746ZM67.4346 12.6332H67.8911V11.499L67.1054 12.317L67.4346 12.6332ZM66.5143 12.2626L66.7185 12.6709L66.7224 12.6689L66.5143 12.2626ZM67.4346 11.5596L67.7719 11.8672L67.8911 11.7365V11.5596H67.4346ZM67.4346 8.8755H67.8911V8.69864L67.7719 8.56795L67.4346 8.8755ZM66.5143 8.18531L66.302 8.58965L66.3142 8.59558L66.5143 8.18531ZM63.8941 8.51762L64.2239 8.83331L64.2239 8.83331L63.8941 8.51762ZM65.249 13.1481C64.8006 13.1481 64.3736 13.037 63.9618 12.809L63.5197 13.6078C64.0622 13.9081 64.6408 14.0611 65.249 14.0611V13.1481ZM63.9703 12.8138C63.576 12.5844 63.2469 12.252 62.9847 11.8025L62.1961 12.2625C62.5304 12.8355 62.9682 13.287 63.5112 13.603L63.9703 12.8138ZM62.9892 11.8103C62.743 11.3686 62.6123 10.8425 62.6123 10.2176H61.6994C61.6994 10.973 61.8585 11.6569 62.1917 12.2547L62.9892 11.8103ZM62.6123 10.2176C62.6123 9.59239 62.7431 9.07193 62.9876 8.64042L62.1933 8.19032C61.8584 8.78133 61.6994 9.46232 61.6994 10.2176H62.6123ZM62.9864 8.64255C63.2485 8.18569 63.5757 7.85649 63.9649 7.63715L63.5166 6.84182C62.9685 7.15078 62.5288 7.6055 62.1945 8.1882L62.9864 8.64255ZM63.9672 7.63582C64.3783 7.40091 64.8034 7.28696 65.249 7.28696V6.374C64.638 6.374 64.0575 6.53272 63.5143 6.84315L63.9672 7.63582ZM65.249 7.28696C65.9497 7.28696 66.5622 7.55259 67.1054 8.11808L67.7638 7.48565C67.0629 6.75596 66.2183 6.374 65.249 6.374V7.28696ZM67.8911 7.80187V4.67042H66.9781V7.80187H67.8911ZM67.8911 4.67042C67.8911 4.60935 67.9063 4.58863 67.9235 4.57142L67.278 3.92586C67.0736 4.13018 66.9781 4.39066 66.9781 4.67042H67.8911ZM67.9114 4.58314C67.9467 4.55029 67.9766 4.53896 68.0225 4.53896V3.626C67.7447 3.626 67.4933 3.72544 67.2901 3.91413L67.9114 4.58314ZM68.0225 4.53896C68.0567 4.53896 68.0721 4.54517 68.097 4.57203L68.766 3.95081C68.5694 3.73909 68.3122 3.626 68.0225 3.626V4.53896ZM68.1088 4.5842C68.1308 4.60622 68.1412 4.62506 68.1412 4.67042H69.0542C69.0542 4.39199 68.9538 4.13817 68.7543 3.93864L68.1088 4.5842ZM68.1412 4.67042V12.9656H69.0542V4.67042H68.1412ZM68.1412 12.9656C68.1412 13.0109 68.1308 13.0298 68.1088 13.0518L68.7543 13.6973C68.9538 13.4978 69.0542 13.244 69.0542 12.9656H68.1412ZM68.1088 13.0518C68.0867 13.0738 68.0679 13.0842 68.0225 13.0842V13.9972C68.301 13.9972 68.5548 13.8969 68.7543 13.6973L68.1088 13.0518ZM68.0225 13.0842C67.9766 13.0842 67.9467 13.0729 67.9114 13.0401L67.2901 13.7091C67.4933 13.8978 67.7447 13.9972 68.0225 13.9972V13.0842ZM67.9235 13.0518C67.9015 13.0298 67.8911 13.0109 67.8911 12.9656H66.9781C66.9781 13.244 67.0784 13.4978 67.278 13.6973L67.9235 13.0518ZM67.8911 12.9656V12.6332H66.9781V12.9656H67.8911ZM67.1054 12.317C66.5622 12.8825 65.9497 13.1481 65.249 13.1481V14.0611C66.2183 14.0611 67.0629 13.6791 67.7638 12.9495L67.1054 12.317ZM65.4151 12.9747C65.8759 12.9747 66.3124 12.8739 66.7185 12.6709L66.3102 11.8543C66.0346 11.9921 65.7383 12.0617 65.4151 12.0617V12.9747ZM66.7224 12.6689C67.1204 12.465 67.4709 12.1973 67.7719 11.8672L67.0973 11.252C66.87 11.5013 66.607 11.7022 66.3062 11.8563L66.7224 12.6689ZM67.8911 11.5596V8.8755H66.9781V11.5596H67.8911ZM67.7719 8.56795C67.4693 8.23602 67.1161 7.97095 66.7145 7.77504L66.3142 8.59558C66.6113 8.7405 66.8716 8.93556 67.0973 9.18306L67.7719 8.56795ZM66.7265 7.78114C66.319 7.5672 65.8796 7.46042 65.4151 7.46042V8.37338C65.7346 8.37338 66.028 8.44554 66.3021 8.58947L66.7265 7.78114ZM65.4151 7.46042C64.6788 7.46042 64.0461 7.69884 63.5644 8.20194L64.2239 8.83331C64.5091 8.53544 64.8904 8.37338 65.4151 8.37338V7.46042ZM63.5644 8.20194C63.0762 8.71188 62.8625 9.40607 62.8625 10.2176H63.7755C63.7755 9.56343 63.9452 9.12434 64.2239 8.83331L63.5644 8.20194ZM62.8625 10.2176C62.8625 11.029 63.0762 11.7232 63.5644 12.2332L64.2239 11.6018C63.9452 11.3108 63.7755 10.8717 63.7755 10.2176H62.8625ZM63.5644 12.2332C64.0461 12.7363 64.6788 12.9747 65.4151 12.9747V12.0617C64.8904 12.0617 64.5091 11.8997 64.2239 11.6018L63.5644 12.2332ZM71.3439 5.43731L71.0211 5.76009L71.0211 5.76009L71.3439 5.43731ZM72.3408 5.43731L72.6636 5.76009L72.6636 5.76009L72.3408 5.43731ZM71.4206 13.3746L71.7434 13.0518L71.7434 13.0518L71.4206 13.3746ZM71.4206 7.07333L71.7434 7.39611L71.7493 7.39013L71.7551 7.38394L71.4206 7.07333ZM72.2514 7.06054L72.5742 6.73777L72.2514 7.06054ZM72.2386 13.3746L71.928 13.0401L71.9218 13.0458L71.9158 13.0518L72.2386 13.3746ZM71.804 5.17255C71.7475 5.17255 71.7099 5.15771 71.6667 5.11453L71.0211 5.76009C71.2336 5.97253 71.5026 6.08551 71.804 6.08551V5.17255ZM71.6667 5.11453C71.6235 5.07134 71.6087 5.03368 71.6087 4.97718H70.6957C70.6957 5.27856 70.8087 5.54764 71.0211 5.76009L71.6667 5.11453ZM71.6087 4.97718V4.92605H70.6957V4.97718H71.6087ZM71.6087 4.92605C71.6087 4.86955 71.6235 4.83188 71.6667 4.7887L71.0211 4.14314C70.8087 4.35559 70.6957 4.62467 70.6957 4.92605H71.6087ZM71.6667 4.7887C71.7099 4.74552 71.7475 4.73068 71.804 4.73068V3.81772C71.5026 3.81772 71.2336 3.9307 71.0211 4.14314L71.6667 4.7887ZM71.804 4.73068H71.8807V3.81772H71.804V4.73068ZM71.8807 4.73068C71.9372 4.73068 71.9749 4.74552 72.0181 4.7887L72.6636 4.14314C72.4512 3.9307 72.1821 3.81772 71.8807 3.81772V4.73068ZM72.0181 4.7887C72.0612 4.83188 72.0761 4.86955 72.0761 4.92605H72.989C72.989 4.62467 72.8761 4.35559 72.6636 4.14314L72.0181 4.7887ZM72.0761 4.92605V4.97718H72.989V4.92605H72.0761ZM72.0761 4.97718C72.0761 5.03368 72.0612 5.07134 72.0181 5.11453L72.6636 5.76009C72.8761 5.54764 72.989 5.27856 72.989 4.97718H72.0761ZM72.0181 5.11453C71.9749 5.15771 71.9372 5.17255 71.8807 5.17255V6.08551C72.1821 6.08551 72.4512 5.97253 72.6636 5.76009L72.0181 5.11453ZM71.8807 5.17255H71.804V6.08551H71.8807V5.17255ZM71.8296 13.0842C71.7842 13.0842 71.7654 13.0738 71.7434 13.0518L71.0978 13.6973C71.2973 13.8969 71.5512 13.9972 71.8296 13.9972V13.0842ZM71.7434 13.0518C71.7213 13.0298 71.7109 13.0109 71.7109 12.9656H70.7979C70.7979 13.244 70.8983 13.4978 71.0978 13.6973L71.7434 13.0518ZM71.7109 12.9656V7.48233H70.7979V12.9656H71.7109ZM71.7109 7.48233C71.7109 7.43697 71.7213 7.41812 71.7434 7.39611L71.0978 6.75055C70.8983 6.95008 70.7979 7.2039 70.7979 7.48233H71.7109ZM71.7551 7.38394C71.78 7.35707 71.7954 7.35087 71.8296 7.35087V6.43791C71.54 6.43791 71.2827 6.55099 71.0861 6.76271L71.7551 7.38394ZM71.8296 7.35087C71.8907 7.35087 71.9114 7.36611 71.9286 7.38332L72.5742 6.73777C72.3698 6.53344 72.1093 6.43791 71.8296 6.43791V7.35087ZM71.9286 7.38332C71.9458 7.40054 71.9611 7.42126 71.9611 7.48233H72.874C72.874 7.20257 72.7785 6.94209 72.5742 6.73777L71.9286 7.38332ZM71.9611 7.48233V12.9656H72.874V7.48233H71.9611ZM71.9611 12.9656C71.9611 12.9997 71.9548 13.0151 71.928 13.0401L72.5492 13.7091C72.7609 13.5125 72.874 13.2552 72.874 12.9656H71.9611ZM71.9158 13.0518C71.8938 13.0738 71.8749 13.0842 71.8296 13.0842V13.9972C72.108 13.9972 72.3618 13.8969 72.5614 13.6973L71.9158 13.0518ZM75.2425 13.3746L75.5653 13.0518L75.5653 13.0518L75.2425 13.3746ZM75.2425 7.07333L75.5653 7.39611L75.5713 7.39013L75.577 7.38394L75.2425 7.07333ZM76.0605 7.07333L75.726 7.38394L75.7375 7.39633L75.7499 7.40783L76.0605 7.07333ZM76.2395 8.00637H75.783V9.19128L76.578 8.31263L76.2395 8.00637ZM77.2875 7.15001L77.513 7.5469L77.2875 7.15001ZM79.831 7.1628L79.5823 7.54555L79.5866 7.5483L79.831 7.1628ZM80.6235 8.07028L80.2098 8.26335L80.2134 8.27077L80.6235 8.07028ZM80.7257 13.3746L80.4151 13.0401L80.4089 13.0458L80.403 13.0518L80.7257 13.3746ZM79.9077 13.3746L79.585 13.6973L79.585 13.6973L79.9077 13.3746ZM77.1853 8.23643L76.9365 7.85368L76.9321 7.85662L77.1853 8.23643ZM76.2395 9.13113L75.8822 8.84696L75.783 8.97172V9.13113H76.2395ZM76.0605 13.3746L75.7499 13.0401L75.7437 13.0458L75.7378 13.0518L76.0605 13.3746ZM75.6515 13.0842C75.6062 13.0842 75.5873 13.0738 75.5653 13.0518L74.9197 13.6973C75.1193 13.8969 75.3731 13.9972 75.6515 13.9972V13.0842ZM75.5653 13.0518C75.5433 13.0298 75.5328 13.0109 75.5328 12.9656H74.6199C74.6199 13.244 74.7202 13.4978 74.9197 13.6973L75.5653 13.0518ZM75.5328 12.9656V7.48233H74.6199V12.9656H75.5328ZM75.5328 7.48233C75.5328 7.43697 75.5433 7.41812 75.5653 7.39611L74.9197 6.75055C74.7202 6.95008 74.6199 7.2039 74.6199 7.48233H75.5328ZM75.577 7.38394C75.602 7.35707 75.6174 7.35087 75.6515 7.35087V6.43791C75.3619 6.43791 75.1046 6.55099 74.908 6.76271L75.577 7.38394ZM75.6515 7.35087C75.6857 7.35087 75.7011 7.35707 75.726 7.38394L76.395 6.76271C76.1984 6.55099 75.9412 6.43791 75.6515 6.43791V7.35087ZM75.7499 7.40783C75.7768 7.43277 75.783 7.44816 75.783 7.48233H76.6959C76.6959 7.1927 76.5829 6.93542 76.3711 6.73882L75.7499 7.40783ZM75.783 7.48233V8.00637H76.6959V7.48233H75.783ZM76.578 8.31263C76.873 7.98653 77.1851 7.73325 77.513 7.5469L77.062 6.75313C76.6402 6.99283 76.2535 7.31045 75.901 7.70011L76.578 8.31263ZM77.513 7.5469C77.8075 7.37962 78.1699 7.28696 78.6168 7.28696V6.374C78.0412 6.374 77.5175 6.49437 77.062 6.75313L77.513 7.5469ZM78.6168 7.28696C79.011 7.28696 79.3263 7.37913 79.5823 7.54553L80.0798 6.78006C79.6541 6.50337 79.1599 6.374 78.6168 6.374V7.28696ZM79.5866 7.5483C79.8606 7.72204 80.0669 7.95695 80.2098 8.26331L81.0371 7.87724C80.8222 7.41671 80.5002 7.04664 80.0755 6.7773L79.5866 7.5483ZM80.2134 8.27077C80.368 8.58699 80.4482 8.93946 80.4482 9.33563H81.3612C81.3612 8.81155 81.2539 8.32044 81.0336 7.86979L80.2134 8.27077ZM80.4482 9.33563V12.9656H81.3612V9.33563H80.4482ZM80.4482 12.9656C80.4482 12.9997 80.442 13.0151 80.4151 13.0401L81.0364 13.7091C81.2481 13.5125 81.3612 13.2552 81.3612 12.9656H80.4482ZM80.403 13.0518C80.3809 13.0738 80.3621 13.0842 80.3167 13.0842V13.9972C80.5952 13.9972 80.849 13.8969 81.0485 13.6973L80.403 13.0518ZM80.3167 13.0842C80.2714 13.0842 80.2525 13.0738 80.2305 13.0518L79.585 13.6973C79.7845 13.8969 80.0383 13.9972 80.3167 13.9972V13.0842ZM80.2305 13.0518C80.2085 13.0298 80.1981 13.0109 80.1981 12.9656H79.2851C79.2851 13.244 79.3854 13.4978 79.585 13.6973L80.2305 13.0518ZM80.1981 12.9656V9.46345H79.2851V12.9656H80.1981ZM80.1981 9.46345C80.1981 8.88431 80.0685 8.36473 79.7291 7.98828C79.3816 7.60284 78.8875 7.44764 78.3356 7.44764V8.3606C78.721 8.3606 78.9299 8.46528 79.0511 8.59962C79.1803 8.74295 79.2851 9.00303 79.2851 9.46345H80.1981ZM78.3356 7.44764C77.8257 7.44764 77.3551 7.58165 76.9365 7.8537L77.4341 8.61917C77.6972 8.44813 77.9934 8.3606 78.3356 8.3606V7.44764ZM76.9321 7.85662C76.5534 8.10909 76.2043 8.44211 75.8822 8.84696L76.5967 9.4153C76.8711 9.07031 77.1526 8.80687 77.4385 8.61625L76.9321 7.85662ZM75.783 9.13113V12.9656H76.6959V9.13113H75.783ZM75.783 12.9656C75.783 12.9997 75.7768 13.0151 75.7499 13.0401L76.3711 13.7091C76.5829 13.5125 76.6959 13.2552 76.6959 12.9656H75.783ZM75.7378 13.0518C75.7157 13.0738 75.6969 13.0842 75.6515 13.0842V13.9972C75.93 13.9972 76.1838 13.8969 76.3833 13.6973L75.7378 13.0518ZM83.8108 15.8797L83.5728 16.2693L83.5821 16.2748L83.8108 15.8797ZM83.7214 15.0617L83.3986 14.7389L83.3852 14.7523L83.3729 14.7668L83.7214 15.0617ZM84.3221 14.9594L84.5262 14.5512L84.5093 14.5427L84.4916 14.5356L84.3221 14.9594ZM88.3866 12.5054H88.8431V11.3481L88.053 12.1938L88.3866 12.5054ZM84.7311 13.1061L84.5125 13.507L84.5212 13.5115L84.7311 13.1061ZM83.568 11.9814L83.1783 12.2192L83.1802 12.2221L83.568 11.9814ZM83.568 8.33868L83.9559 8.57942L83.9577 8.57645L83.568 8.33868ZM84.7311 7.21392L84.944 7.61772L84.9467 7.6163L84.7311 7.21392ZM88.3866 7.80187L88.053 8.11349L88.8431 8.95917V7.80187H88.3866ZM88.5527 7.07333L88.8755 7.39611L88.8815 7.39013L88.8873 7.38394L88.5527 7.07333ZM89.3708 7.07333L89.0363 7.38394L89.0478 7.39633L89.0601 7.40783L89.3708 7.07333ZM87.5047 12.1603L87.283 11.7613L87.283 11.7613L87.5047 12.1603ZM88.3866 11.4701L88.7142 11.7881L88.8431 11.6552V11.4701H88.3866ZM88.3866 8.83716H88.8431V8.65206L88.7142 8.51923L88.3866 8.83716ZM87.5047 8.14696L87.7264 7.74793L87.7264 7.74793L87.5047 8.14696ZM84.8717 8.47928L85.1874 8.809L85.1875 8.80885L84.8717 8.47928ZM84.8717 11.8408L84.5523 12.1671L84.5595 12.1738L84.8717 11.8408ZM86.5461 16.0879C86.0916 16.0879 85.6309 16.0291 85.1631 15.9102L84.9382 16.795C85.4758 16.9317 86.0121 17.0008 86.5461 17.0008V16.0879ZM85.1631 15.9102C84.6867 15.7891 84.316 15.6447 84.0396 15.4847L83.5821 16.2748C83.9533 16.4896 84.4092 16.6605 84.9382 16.795L85.1631 15.9102ZM84.0489 15.4902C84.0423 15.4862 84.0407 15.4842 84.0416 15.4851C84.0426 15.4862 84.0437 15.4878 84.0442 15.4888C84.0456 15.4915 84.0373 15.4777 84.0373 15.4324H83.1243C83.1243 15.7699 83.2629 16.0798 83.5728 16.2692L84.0489 15.4902ZM84.0373 15.4324C84.0373 15.4113 84.041 15.3906 84.0698 15.3566L83.3729 14.7668C83.2143 14.9543 83.1243 15.1808 83.1243 15.4324H84.0373ZM84.0442 15.3845C84.0563 15.3723 84.0633 15.3693 84.0653 15.3685C84.0672 15.3676 84.0745 15.3648 84.092 15.3648V14.4518C83.8264 14.4518 83.5866 14.5509 83.3986 14.7389L84.0442 15.3845ZM84.092 15.3648C84.0858 15.3648 84.1037 15.3637 84.1526 15.3833L84.4916 14.5356C84.3701 14.487 84.2346 14.4518 84.092 14.4518V15.3648ZM84.118 15.3677C84.832 15.7247 85.6053 15.9016 86.431 15.9016V14.9887C85.7401 14.9887 85.1074 14.8418 84.5262 14.5512L84.118 15.3677ZM86.431 15.9016C87.1609 15.9016 87.7902 15.7058 88.2305 15.2367C88.6658 14.773 88.8431 14.1197 88.8431 13.3618H87.9301C87.9301 13.9928 87.7815 14.3811 87.5649 14.6119C87.3534 14.8372 87.0049 14.9887 86.431 14.9887V15.9016ZM88.8431 13.3618V12.5054H87.9301V13.3618H88.8431ZM88.053 12.1938C87.5305 12.7532 86.921 13.0203 86.201 13.0203V13.9333C87.1851 13.9333 88.0327 13.5529 88.7202 12.817L88.053 12.1938ZM86.201 13.0203C85.7763 13.0203 85.3579 12.9167 84.941 12.7008L84.5212 13.5115C85.0587 13.7898 85.6202 13.9333 86.201 13.9333V13.0203ZM84.9497 12.7054C84.5565 12.4909 84.2248 12.174 83.9558 11.7407L83.1802 12.2221C83.5247 12.7772 83.9684 13.2101 84.5125 13.5069L84.9497 12.7054ZM83.9577 11.7436C83.7032 11.3265 83.5644 10.8036 83.5644 10.1536H82.6514C82.6514 10.9352 82.8193 11.6308 83.1783 12.2191L83.9577 11.7436ZM83.5644 10.1536C83.5644 9.50335 83.7033 8.98633 83.9558 8.57941L83.1802 8.09796C82.8192 8.67947 82.6514 9.37242 82.6514 10.1536H83.5644ZM83.9577 8.57645C84.2265 8.13593 84.5561 7.82225 84.944 7.61771L84.5182 6.81014C83.9688 7.09981 83.523 7.53597 83.1783 8.10092L83.9577 8.57645ZM84.9467 7.6163C85.3628 7.39339 85.7792 7.28696 86.201 7.28696V6.374C85.6173 6.374 85.0538 6.5232 84.5156 6.81155L84.9467 7.6163ZM86.201 7.28696C86.921 7.28696 87.5305 7.55412 88.053 8.11349L88.7202 7.49025C88.0327 6.75443 87.1851 6.374 86.201 6.374V7.28696ZM88.8431 7.80187V7.48233H87.9301V7.80187H88.8431ZM88.8431 7.48233C88.8431 7.43697 88.8535 7.41812 88.8755 7.39611L88.23 6.75055C88.0304 6.95007 87.9301 7.2039 87.9301 7.48233H88.8431ZM88.8873 7.38394C88.9122 7.35707 88.9276 7.35087 88.9618 7.35087V6.43791C88.6721 6.43791 88.4148 6.55099 88.2182 6.76272L88.8873 7.38394ZM88.9618 7.35087C88.9959 7.35087 89.0113 7.35707 89.0363 7.38394L89.7053 6.76271C89.5087 6.55099 89.2514 6.43791 88.9618 6.43791V7.35087ZM89.0601 7.40783C89.087 7.43277 89.0932 7.44816 89.0932 7.48233H90.0062C90.0062 7.1927 89.8931 6.93542 89.6814 6.73882L89.0601 7.40783ZM89.0932 7.48233V13.1956H90.0062V7.48233H89.0932ZM89.0932 13.1956C89.0932 14.1996 88.8505 14.9019 88.4302 15.3704L89.1098 15.98C89.7291 15.2897 90.0062 14.3389 90.0062 13.1956H89.0932ZM88.4302 15.3704C88.017 15.8311 87.4124 16.0879 86.5461 16.0879V17.0008C87.6055 17.0008 88.4836 16.6782 89.1098 15.98L88.4302 15.3704ZM86.4438 12.8724C86.9108 12.8724 87.3427 12.7725 87.7264 12.5594L87.283 11.7613C87.0531 11.889 86.7778 11.9595 86.4438 11.9595V12.8724ZM87.7264 12.5594C88.0775 12.3643 88.4064 12.1051 88.7142 11.7881L88.059 11.1522C87.8044 11.4146 87.5453 11.6156 87.283 11.7613L87.7264 12.5594ZM88.8431 11.4701V8.83716H87.9301V11.4701H88.8431ZM88.7142 8.51923C88.4064 8.20217 88.0775 7.94304 87.7264 7.74793L87.283 8.546C87.5453 8.69173 87.8044 8.89272 88.059 9.15509L88.7142 8.51923ZM87.7264 7.74793C87.3427 7.53479 86.9108 7.43486 86.4438 7.43486V8.34781C86.7778 8.34781 87.0531 8.4183 87.283 8.546L87.7264 7.74793ZM86.4438 7.43486C85.7034 7.43486 85.061 7.66566 84.5559 8.14971L85.1875 8.80885C85.5005 8.50897 85.9061 8.34781 86.4438 8.34781V7.43486ZM84.556 8.14956C84.0393 8.64427 83.8145 9.33813 83.8145 10.1536H84.7275C84.7275 9.50356 84.9031 9.08117 85.1874 8.809L84.556 8.14956ZM83.8145 10.1536C83.8145 10.9698 84.0395 11.6651 84.5524 12.167L85.191 11.5146C84.9029 11.2326 84.7275 10.8031 84.7275 10.1536H83.8145ZM84.5595 12.1738C85.065 12.6478 85.7062 12.8724 86.4438 12.8724V11.9595C85.9033 11.9595 85.4964 11.8007 85.1839 11.5078L84.5595 12.1738Z" fill="white"/>
</svg>
