<svg width="99" height="20" viewBox="0 0 99 20" fill="none" xmlns="http://www.w3.org/2000/svg">
<path d="M30.7256 9.5601H28.1743L28.1605 8.48843H30.4767C30.8593 8.48843 31.1934 8.4239 31.4792 8.29484C31.765 8.16578 31.9863 7.9814 32.143 7.74171C32.3043 7.49742 32.385 7.20703 32.385 6.87055C32.385 6.5018 32.3135 6.20219 32.1706 5.97172C32.0324 5.73665 31.818 5.5661 31.5276 5.46009C31.2418 5.34946 30.8777 5.29415 30.4352 5.29415H28.4716V14.2686H27.1372V4.20173H30.4352C30.9515 4.20173 31.4124 4.25474 31.818 4.36076C32.2236 4.46216 32.567 4.62349 32.8482 4.84474C33.134 5.06138 33.3506 5.33794 33.4981 5.67442C33.6456 6.0109 33.7194 6.41422 33.7194 6.88438C33.7194 7.29922 33.6134 7.67488 33.4013 8.01136C33.1893 8.34324 32.8943 8.61519 32.5163 8.82722C32.143 9.03925 31.7051 9.17522 31.2027 9.23514L30.7256 9.5601ZM30.6634 14.2686H27.6489L28.4025 13.1831H30.6634C31.0874 13.1831 31.447 13.1093 31.742 12.9618C32.0416 12.8143 32.2697 12.6069 32.4264 12.3395C32.5832 12.0676 32.6615 11.7472 32.6615 11.3785C32.6615 11.0051 32.5947 10.6825 32.461 10.4105C32.3273 10.1386 32.1176 9.92885 31.8318 9.78135C31.5461 9.63385 31.1773 9.5601 30.7256 9.5601H28.8242L28.8381 8.48843H31.4377L31.7212 8.87562C32.2052 8.9171 32.6154 9.05538 32.9519 9.29046C33.2884 9.52092 33.5442 9.81592 33.7194 10.1755C33.8991 10.535 33.989 10.9314 33.989 11.3647C33.989 11.9915 33.8507 12.5216 33.5742 12.9549C33.3022 13.3836 32.9173 13.7108 32.4195 13.9367C31.9217 14.1579 31.3363 14.2686 30.6634 14.2686ZM35.4271 10.611V10.452C35.4271 9.91272 35.5055 9.4126 35.6622 8.95167C35.8189 8.48612 36.0448 8.08281 36.3398 7.74171C36.6348 7.39601 36.992 7.12867 37.4115 6.93969C37.8309 6.7461 38.3011 6.6493 38.8219 6.6493C39.3474 6.6493 39.8198 6.7461 40.2393 6.93969C40.6634 7.12867 41.0229 7.39601 41.3179 7.74171C41.6175 8.08281 41.8457 8.48612 42.0024 8.95167C42.1591 9.4126 42.2375 9.91272 42.2375 10.452V10.611C42.2375 11.1503 42.1591 11.6504 42.0024 12.1114C41.8457 12.5723 41.6175 12.9756 41.3179 13.3213C41.0229 13.6624 40.6657 13.9298 40.2462 14.1234C39.8314 14.3123 39.3612 14.4068 38.8358 14.4068C38.3103 14.4068 37.8378 14.3123 37.4184 14.1234C36.9989 13.9298 36.6394 13.6624 36.3398 13.3213C36.0448 12.9756 35.8189 12.5723 35.6622 12.1114C35.5055 11.6504 35.4271 11.1503 35.4271 10.611ZM36.7062 10.452V10.611C36.7062 10.9844 36.75 11.337 36.8376 11.6689C36.9252 11.9961 37.0565 12.2865 37.2317 12.54C37.4115 12.7936 37.635 12.9941 37.9024 13.1416C38.1697 13.2845 38.4808 13.3559 38.8358 13.3559C39.1861 13.3559 39.4926 13.2845 39.7553 13.1416C40.0227 12.9941 40.2439 12.7936 40.4191 12.54C40.5942 12.2865 40.7256 11.9961 40.8132 11.6689C40.9053 11.337 40.9514 10.9844 40.9514 10.611V10.452C40.9514 10.0833 40.9053 9.73526 40.8132 9.40799C40.7256 9.07612 40.5919 8.78343 40.4121 8.52991C40.237 8.27179 40.0157 8.06898 39.7484 7.92148C39.4857 7.77398 39.1768 7.70023 38.8219 7.70023C38.4716 7.70023 38.1628 7.77398 37.8954 7.92148C37.6327 8.06898 37.4115 8.27179 37.2317 8.52991C37.0565 8.78343 36.9252 9.07612 36.8376 9.40799C36.75 9.73526 36.7062 10.0833 36.7062 10.452ZM43.5027 10.611V10.452C43.5027 9.91272 43.5811 9.4126 43.7378 8.95167C43.8945 8.48612 44.1204 8.08281 44.4154 7.74171C44.7104 7.39601 45.0676 7.12867 45.487 6.93969C45.9065 6.7461 46.3766 6.6493 46.8975 6.6493C47.423 6.6493 47.8954 6.7461 48.3149 6.93969C48.7389 7.12867 49.0985 7.39601 49.3935 7.74171C49.6931 8.08281 49.9212 8.48612 50.078 8.95167C50.2347 9.4126 50.313 9.91272 50.313 10.452V10.611C50.313 11.1503 50.2347 11.6504 50.078 12.1114C49.9212 12.5723 49.6931 12.9756 49.3935 13.3213C49.0985 13.6624 48.7412 13.9298 48.3218 14.1234C47.907 14.3123 47.4368 14.4068 46.9113 14.4068C46.3859 14.4068 45.9134 14.3123 45.494 14.1234C45.0745 13.9298 44.715 13.6624 44.4154 13.3213C44.1204 12.9756 43.8945 12.5723 43.7378 12.1114C43.5811 11.6504 43.5027 11.1503 43.5027 10.611ZM44.7818 10.452V10.611C44.7818 10.9844 44.8256 11.337 44.9132 11.6689C45.0008 11.9961 45.1321 12.2865 45.3073 12.54C45.487 12.7936 45.7106 12.9941 45.9779 13.1416C46.2453 13.2845 46.5564 13.3559 46.9113 13.3559C47.2616 13.3559 47.5682 13.2845 47.8309 13.1416C48.0982 12.9941 48.3195 12.7936 48.4946 12.54C48.6698 12.2865 48.8012 11.9961 48.8887 11.6689C48.9809 11.337 49.027 10.9844 49.027 10.611V10.452C49.027 10.0833 48.9809 9.73526 48.8887 9.40799C48.8012 9.07612 48.6675 8.78343 48.4877 8.52991C48.3126 8.27179 48.0913 8.06898 47.824 7.92148C47.5612 7.77398 47.2524 7.70023 46.8975 7.70023C46.5472 7.70023 46.2384 7.77398 45.971 7.92148C45.7083 8.06898 45.487 8.27179 45.3073 8.52991C45.1321 8.78343 45.0008 9.07612 44.9132 9.40799C44.8256 9.73526 44.7818 10.0833 44.7818 10.452ZM53.1893 8.27409V14.2686H51.9033V6.78758H53.1201L53.1893 8.27409ZM52.9265 10.2446L52.3319 10.2238C52.3365 9.71221 52.4034 9.23975 52.5324 8.80647C52.6615 8.36859 52.8528 7.98832 53.1063 7.66566C53.3598 7.34301 53.6756 7.0941 54.0535 6.91895C54.4315 6.73918 54.8694 6.6493 55.3672 6.6493C55.7175 6.6493 56.0402 6.7 56.3351 6.80141C56.6301 6.8982 56.886 7.05262 57.1026 7.26465C57.3192 7.47668 57.4875 7.74863 57.6073 8.0805C57.7272 8.41238 57.7871 8.81339 57.7871 9.28354V14.2686H56.508V9.34577C56.508 8.95397 56.4412 8.64054 56.3075 8.40546C56.1784 8.17038 55.9941 7.99984 55.7544 7.89382C55.5147 7.7832 55.2335 7.72789 54.9109 7.72789C54.5329 7.72789 54.2172 7.79472 53.9636 7.92839C53.7101 8.06206 53.5073 8.24644 53.3552 8.48152C53.2031 8.71659 53.0925 8.98624 53.0233 9.29046C52.9588 9.59006 52.9265 9.90811 52.9265 10.2446ZM57.7733 9.53936L56.9159 9.80209C56.9205 9.39186 56.9874 8.99776 57.1164 8.6198C57.2501 8.24183 57.4414 7.90535 57.6903 7.61035C57.9438 7.31535 58.2549 7.08258 58.6237 6.91203C58.9924 6.73688 59.4142 6.6493 59.889 6.6493C60.29 6.6493 60.6449 6.70231 60.9537 6.80832C61.2672 6.91434 61.5299 7.07797 61.7419 7.29922C61.9586 7.51586 62.1222 7.79472 62.2328 8.13581C62.3434 8.47691 62.3987 8.88253 62.3987 9.35268V14.2686H61.1127V9.33885C61.1127 8.9194 61.0459 8.59444 60.9122 8.36398C60.7832 8.1289 60.5988 7.96527 60.3591 7.87308C60.124 7.77629 59.8429 7.72789 59.5156 7.72789C59.2344 7.72789 58.9855 7.77629 58.7689 7.87308C58.5522 7.96988 58.3702 8.10355 58.2227 8.27409C58.0752 8.44003 57.9622 8.63132 57.8839 8.84796C57.8101 9.0646 57.7733 9.29507 57.7733 9.53936ZM67.4391 14.4068C66.9182 14.4068 66.4458 14.3193 66.0217 14.1441C65.6022 13.9643 65.2404 13.7131 64.9362 13.3905C64.6366 13.0678 64.4061 12.6852 64.2448 12.2427C64.0835 11.8002 64.0028 11.3163 64.0028 10.7908V10.5004C64.0028 9.89198 64.0927 9.35038 64.2724 8.87562C64.4522 8.39624 64.6965 7.99062 65.0053 7.65875C65.3142 7.32687 65.6645 7.07566 66.0563 6.90512C66.4481 6.73457 66.8537 6.6493 67.2731 6.6493C67.8078 6.6493 68.2688 6.74149 68.6559 6.92586C69.0477 7.11023 69.3681 7.36836 69.617 7.70023C69.8659 8.02749 70.0503 8.41468 70.1701 8.86179C70.29 9.30428 70.3499 9.78827 70.3499 10.3137V10.8876H64.7633V9.84358H69.0708V9.74678C69.0523 9.41491 68.9832 9.09225 68.8634 8.77882C68.7481 8.46538 68.5638 8.20726 68.3102 8.00445C68.0567 7.80164 67.711 7.70023 67.2731 7.70023C66.9827 7.70023 66.7154 7.76246 66.4711 7.88691C66.2268 8.00675 66.0171 8.18652 65.8419 8.4262C65.6668 8.66589 65.5308 8.95858 65.434 9.30428C65.3372 9.64999 65.2888 10.0487 65.2888 10.5004V10.7908C65.2888 11.1457 65.3372 11.4799 65.434 11.7933C65.5354 12.1022 65.6806 12.3741 65.8696 12.6092C66.0632 12.8443 66.296 13.0286 66.5679 13.1623C66.8445 13.296 67.1579 13.3628 67.5082 13.3628C67.9599 13.3628 68.3425 13.2706 68.6559 13.0863C68.9694 12.9019 69.2436 12.6553 69.4787 12.3465L70.2531 12.9618C70.0918 13.2061 69.8866 13.4389 69.6377 13.6601C69.3888 13.8814 69.0823 14.0611 68.7182 14.1994C68.3586 14.3377 67.9323 14.4068 67.4391 14.4068ZM73.1224 7.96296V14.2686H71.8433V6.78758H73.0878L73.1224 7.96296ZM75.4593 6.7461L75.4524 7.93531C75.3464 7.91226 75.245 7.89843 75.1482 7.89382C75.056 7.8846 74.95 7.88 74.8302 7.88C74.5352 7.88 74.2747 7.92609 74.0489 8.01828C73.823 8.11046 73.6317 8.23952 73.475 8.40546C73.3183 8.5714 73.1938 8.7696 73.1017 9.00007C73.0141 9.22593 72.9565 9.47483 72.9288 9.74678L72.5693 9.9542C72.5693 9.50249 72.6131 9.07843 72.7006 8.68202C72.7928 8.28562 72.9334 7.93531 73.1224 7.63109C73.3114 7.32226 73.5511 7.08258 73.8415 6.91203C74.1365 6.73688 74.4868 6.6493 74.8924 6.6493C74.9846 6.6493 75.0906 6.66082 75.2104 6.68387C75.3303 6.70231 75.4133 6.72305 75.4593 6.7461ZM80.7762 12.9895V9.13835C80.7762 8.84335 80.7163 8.58753 80.5965 8.37089C80.4812 8.14964 80.3061 7.9791 80.071 7.85925C79.8359 7.73941 79.5455 7.67949 79.1998 7.67949C78.8772 7.67949 78.5937 7.7348 78.3494 7.84543C78.1097 7.95605 77.9207 8.10124 77.7825 8.28101C77.6488 8.46077 77.5819 8.65437 77.5819 8.86179H76.3029C76.3029 8.59444 76.372 8.32941 76.5103 8.06667C76.6486 7.80394 76.8468 7.56656 77.1049 7.35453C77.3676 7.13789 77.681 6.96734 78.0452 6.84289C78.4139 6.71383 78.8242 6.6493 79.2759 6.6493C79.8198 6.6493 80.2992 6.74149 80.714 6.92586C81.1335 7.11023 81.4607 7.3891 81.6958 7.76246C81.9355 8.13121 82.0553 8.59444 82.0553 9.15218V12.6368C82.0553 12.8857 82.0761 13.1508 82.1175 13.432C82.1636 13.7131 82.2305 13.9551 82.3181 14.1579V14.2686H80.9836C80.9191 14.1211 80.8684 13.9252 80.8315 13.6809C80.7947 13.432 80.7762 13.2015 80.7762 12.9895ZM80.9975 9.73295L81.0113 10.6318H79.7184C79.3542 10.6318 79.0293 10.6617 78.7435 10.7217C78.4577 10.777 78.218 10.8622 78.0244 10.9775C77.8309 11.0927 77.6834 11.2379 77.5819 11.4131C77.4805 11.5836 77.4298 11.7841 77.4298 12.0146C77.4298 12.2497 77.4828 12.464 77.5889 12.6576C77.6949 12.8512 77.8539 13.0056 78.0659 13.1208C78.2826 13.2315 78.5476 13.2868 78.861 13.2868C79.2528 13.2868 79.5985 13.2038 79.8981 13.0379C80.1978 12.8719 80.4351 12.6691 80.6103 12.4294C80.7901 12.1897 80.8869 11.957 80.9007 11.7311L81.4469 12.3465C81.4146 12.54 81.327 12.7544 81.1842 12.9895C81.0413 13.2245 80.85 13.4504 80.6103 13.667C80.3752 13.8791 80.094 14.0565 79.7668 14.1994C79.4441 14.3377 79.08 14.4068 78.6744 14.4068C78.1673 14.4068 77.7225 14.3077 77.34 14.1095C76.962 13.9113 76.667 13.6463 76.455 13.3144C76.2475 12.9779 76.1438 12.6023 76.1438 12.1874C76.1438 11.7864 76.2222 11.4338 76.3789 11.1296C76.5356 10.8208 76.7615 10.5649 77.0565 10.3621C77.3515 10.1547 77.7064 9.99799 78.1212 9.89198C78.5361 9.78596 78.9993 9.73295 79.511 9.73295H80.9975ZM85.3464 8.38472V14.2686H84.0673V6.78758H85.2773L85.3464 8.38472ZM85.0422 10.2446L84.5098 10.2238C84.5144 9.71221 84.5905 9.23975 84.738 8.80647C84.8855 8.36859 85.0929 7.98832 85.3602 7.66566C85.6276 7.34301 85.9456 7.0941 86.3144 6.91895C86.6877 6.73918 87.1003 6.6493 87.552 6.6493C87.9207 6.6493 88.2526 6.7 88.5476 6.80141C88.8426 6.8982 89.0938 7.05492 89.3012 7.27156C89.5133 7.4882 89.6746 7.76937 89.7852 8.11507C89.8958 8.45616 89.9511 8.87331 89.9511 9.36651V14.2686H88.6651V9.35268C88.6651 8.96089 88.6075 8.64745 88.4923 8.41238C88.377 8.17269 88.2088 7.99984 87.9876 7.89382C87.7663 7.7832 87.4944 7.72789 87.1717 7.72789C86.8537 7.72789 86.5633 7.79472 86.3005 7.92839C86.0424 8.06206 85.8189 8.24644 85.6299 8.48152C85.4455 8.71659 85.3003 8.98624 85.1943 9.29046C85.0929 9.59006 85.0422 9.90811 85.0422 10.2446ZM96.7407 6.78758H97.9023V14.1095C97.9023 14.7687 97.7686 15.331 97.5013 15.7966C97.2339 16.2621 96.8606 16.6147 96.3812 16.8544C95.9064 17.0987 95.3579 17.2208 94.7356 17.2208C94.4775 17.2208 94.1733 17.1794 93.823 17.0964C93.4773 17.018 93.1362 16.8821 92.7997 16.6885C92.4678 16.4995 92.189 16.2437 91.9631 15.921L92.6338 15.1605C92.9472 15.5384 93.2745 15.8012 93.6156 15.9487C93.9613 16.0962 94.3024 16.1699 94.6389 16.1699C95.0445 16.1699 95.3948 16.0939 95.6898 15.9417C95.9848 15.7896 96.2129 15.5638 96.3743 15.2642C96.5402 14.9692 96.6232 14.605 96.6232 14.1718V8.43312L96.7407 6.78758ZM91.5898 10.611V10.4658C91.5898 9.89428 91.6566 9.37573 91.7903 8.91019C91.9286 8.44003 92.1245 8.03671 92.378 7.70023C92.6361 7.36375 92.9472 7.10562 93.3114 6.92586C93.6755 6.74149 94.0857 6.6493 94.5421 6.6493C95.0122 6.6493 95.4224 6.73227 95.7728 6.8982C96.1277 7.05953 96.4273 7.29691 96.6716 7.61035C96.9205 7.91917 97.1164 8.29253 97.2593 8.73042C97.4022 9.16831 97.5013 9.66381 97.5566 10.2169V10.853C97.5059 11.4015 97.4068 11.8947 97.2593 12.3326C97.1164 12.7705 96.9205 13.1439 96.6716 13.4527C96.4273 13.7615 96.1277 13.9989 95.7728 14.1648C95.4178 14.3262 95.003 14.4068 94.5282 14.4068C94.0811 14.4068 93.6755 14.3123 93.3114 14.1234C92.9518 13.9344 92.643 13.6693 92.3849 13.3282C92.1268 12.9872 91.9286 12.5861 91.7903 12.1252C91.6566 11.6597 91.5898 11.1549 91.5898 10.611ZM92.8689 10.4658V10.611C92.8689 10.9844 92.9057 11.3347 92.9795 11.662C93.0578 11.9892 93.1754 12.2773 93.3321 12.5262C93.4934 12.7751 93.6985 12.971 93.9474 13.1139C94.1964 13.2522 94.4937 13.3213 94.8394 13.3213C95.2634 13.3213 95.6137 13.2315 95.8903 13.0517C96.1669 12.8719 96.3858 12.6345 96.5471 12.3395C96.7131 12.0445 96.8421 11.7242 96.9343 11.3785V9.71221C96.8836 9.4587 96.8052 9.2144 96.6992 8.97933C96.5978 8.73964 96.4642 8.52761 96.2982 8.34324C96.1369 8.15425 95.9364 8.00445 95.6967 7.89382C95.457 7.7832 95.1758 7.72789 94.8532 7.72789C94.5029 7.72789 94.201 7.80164 93.9474 7.94914C93.6985 8.09203 93.4934 8.29023 93.3321 8.54374C93.1754 8.79265 93.0578 9.08304 92.9795 9.41491C92.9057 9.74217 92.8689 10.0925 92.8689 10.4658Z" fill="#999999"/>
<path d="M8.78134 8.95125C12.3286 6.71276 17.1145 8.37073 15.1132 12.2881C13.112 16.2031 -5.18584 8.94661 2.31308 12.5528C9.812 16.159 12.703 23.5038 15.7719 16.5607C18.8408 9.6177 22.5382 -5.4062 12.1391 3.72425C1.73997 12.8547 4.35362 11.7424 8.78134 8.95125Z" fill="#999999"/>
</svg>
