<svg width="71" height="22" viewBox="0 0 71 22" fill="none" xmlns="http://www.w3.org/2000/svg">
<path d="M31.8155 10.6417H28.6581L28.641 9.31543H31.5074C31.9809 9.31543 32.3945 9.23556 32.7481 9.07584C33.1018 8.91612 33.3756 8.68794 33.5696 8.39131C33.7692 8.08898 33.8691 7.7296 33.8691 7.31317C33.8691 6.85682 33.7806 6.48603 33.6038 6.20081C33.4327 5.90988 33.1674 5.69882 32.808 5.56762C32.4544 5.43071 32.0037 5.36226 31.4561 5.36226H29.026V16.4688H27.3746V4.01031H31.4561C32.095 4.01031 32.6654 4.07591 33.1674 4.20711C33.6694 4.33261 34.0944 4.53227 34.4424 4.80608C34.796 5.07419 35.0641 5.41645 35.2467 5.83287C35.4292 6.2493 35.5205 6.74843 35.5205 7.33029C35.5205 7.84368 35.3893 8.3086 35.1269 8.72502C34.8645 9.13574 34.4994 9.4723 34.0316 9.7347C33.5696 9.99711 33.0277 10.1654 32.4059 10.2395L31.8155 10.6417ZM31.7385 16.4688H28.0078L28.9404 15.1254H31.7385C32.2633 15.1254 32.7082 15.0341 33.0733 14.8516C33.4441 14.669 33.7264 14.4123 33.9204 14.0815C34.1143 13.7449 34.2113 13.3485 34.2113 12.8921C34.2113 12.43 34.1286 12.0307 33.9632 11.6942C33.7978 11.3576 33.5382 11.0981 33.1845 10.9155C32.8309 10.733 32.3745 10.6417 31.8155 10.6417H29.4624L29.4795 9.31543H32.6968L33.0476 9.7946C33.6466 9.84594 34.1543 10.0171 34.5707 10.308C34.9871 10.5932 35.3037 10.9583 35.5205 11.4032C35.743 11.8482 35.8542 12.3388 35.8542 12.875C35.8542 13.6508 35.6831 14.3068 35.3408 14.843C35.0042 15.3735 34.5279 15.7785 33.9118 16.0581C33.2958 16.3319 32.5713 16.4688 31.7385 16.4688ZM39.7731 3.32578V16.4688H38.1816V3.32578H39.7731ZM44.0343 7.21049V16.4688H42.4428V7.21049H44.0343ZM42.323 4.75474C42.323 4.49804 42.4 4.28127 42.554 4.10443C42.7138 3.9276 42.9477 3.83918 43.2557 3.83918C43.558 3.83918 43.7891 3.9276 43.9488 4.10443C44.1142 4.28127 44.1969 4.49804 44.1969 4.75474C44.1969 5.00003 44.1142 5.21109 43.9488 5.38793C43.7891 5.55906 43.558 5.64463 43.2557 5.64463C42.9477 5.64463 42.7138 5.55906 42.554 5.38793C42.4 5.21109 42.323 5.00003 42.323 4.75474ZM48.1501 9.05017V16.4688H46.5586V7.21049H48.0645L48.1501 9.05017ZM47.8249 11.4888L47.0891 11.4631C47.0948 10.83 47.1775 10.2452 47.3372 9.70903C47.4969 9.16711 47.7337 8.6965 48.0474 8.29719C48.3612 7.89788 48.7519 7.58984 49.2197 7.37307C49.6874 7.1506 50.2294 7.03936 50.8454 7.03936C51.279 7.03936 51.6783 7.10211 52.0434 7.22761C52.4084 7.3474 52.725 7.5385 52.9931 7.8009C53.2613 8.06331 53.4695 8.39987 53.6178 8.81058C53.7661 9.2213 53.8403 9.71759 53.8403 10.2994V16.4688H52.2573V10.3764C52.2573 9.89157 52.1746 9.50367 52.0091 9.21275C51.8494 8.92182 51.6212 8.71076 51.3246 8.57956C51.028 8.44265 50.68 8.3742 50.2807 8.3742C49.8129 8.3742 49.4222 8.45691 49.1084 8.62234C48.7947 8.78777 48.5437 9.01594 48.3554 9.30687C48.1672 9.5978 48.0303 9.9315 47.9447 10.308C47.8649 10.6788 47.8249 11.0724 47.8249 11.4888ZM53.8231 10.616L52.7621 10.9412C52.7678 10.4335 52.8505 9.94577 53.0103 9.478C53.1757 9.01024 53.4124 8.59382 53.7205 8.22873C54.0342 7.86365 54.4193 7.57558 54.8756 7.36451C55.332 7.14774 55.8539 7.03936 56.4415 7.03936C56.9378 7.03936 57.377 7.10496 57.7592 7.23616C58.1471 7.36737 58.4722 7.56987 58.7347 7.84368C59.0028 8.11179 59.2053 8.45691 59.3422 8.87904C59.4791 9.30117 59.5475 9.80316 59.5475 10.385V16.4688H57.956V10.3679C57.956 9.84879 57.8733 9.44663 57.7079 9.16141C57.5481 8.87048 57.32 8.66797 57.0233 8.55389C56.7324 8.43409 56.3844 8.3742 55.9794 8.3742C55.6314 8.3742 55.3234 8.43409 55.0553 8.55389C54.7872 8.67368 54.5619 8.83911 54.3793 9.05017C54.1968 9.25553 54.057 9.49226 53.96 9.76037C53.8688 10.0285 53.8231 10.3137 53.8231 10.616ZM63.5264 8.99027V20.0283H61.9348V7.21049H63.3895L63.5264 8.99027ZM69.7642 11.7626V11.9423C69.7642 12.6154 69.6843 13.2401 69.5246 13.8162C69.3648 14.3867 69.131 14.8829 68.8229 15.3051C68.5206 15.7272 68.147 16.0552 67.702 16.2891C67.2571 16.523 66.7465 16.6399 66.1704 16.6399C65.5828 16.6399 65.0637 16.5429 64.6131 16.349C64.1624 16.155 63.7802 15.8727 63.4665 15.5019C63.1527 15.1311 62.9017 14.6861 62.7135 14.167C62.5309 13.6479 62.4054 13.0632 62.337 12.4129V11.4546C62.4054 10.7701 62.5338 10.1568 62.722 9.61491C62.9103 9.07299 63.1584 8.61093 63.4665 8.22873C63.7802 7.84083 64.1596 7.54705 64.6045 7.3474C65.0495 7.14204 65.5628 7.03936 66.1447 7.03936C66.7266 7.03936 67.2428 7.15345 67.6935 7.38163C68.1441 7.6041 68.5234 7.92355 68.8315 8.33997C69.1395 8.75639 69.3706 9.25553 69.5246 9.83738C69.6843 10.4135 69.7642 11.0553 69.7642 11.7626ZM68.1726 11.9423V11.7626C68.1726 11.3006 68.1241 10.867 68.0272 10.462C67.9302 10.0513 67.779 9.69192 67.5737 9.38388C67.374 9.07014 67.1173 8.82485 66.8036 8.64801C66.4898 8.46547 66.1162 8.3742 65.6826 8.3742C65.2833 8.3742 64.9354 8.44265 64.6387 8.57956C64.3478 8.71646 64.0997 8.90186 63.8943 9.13574C63.6889 9.36391 63.5207 9.62632 63.3895 9.92295C63.264 10.2139 63.1698 10.5162 63.1071 10.83V13.0461C63.2212 13.4454 63.3809 13.8219 63.5863 14.1756C63.7916 14.5236 64.0654 14.8059 64.4077 15.0227C64.75 15.2338 65.1807 15.3393 65.6998 15.3393C66.1276 15.3393 66.4955 15.2509 66.8036 15.074C67.1173 14.8915 67.374 14.6434 67.5737 14.3296C67.779 14.0159 67.9302 13.6565 68.0272 13.2515C68.1241 12.8408 68.1726 12.4044 68.1726 11.9423Z" fill="#999999"/>
<path d="M16.6848 7.74268C17.9438 7.74268 18.9645 6.70304 18.9645 5.42058C18.9645 4.13813 17.9438 3.09849 16.6848 3.09849C15.4257 3.09849 14.405 4.13813 14.405 5.42058C14.405 6.70304 15.4257 7.74268 16.6848 7.74268Z" fill="#999999"/>
<path d="M8.5602 5.42058C8.11217 5.42058 7.67337 5.46004 7.24382 5.52971C6.80041 4.1202 5.48865 3.09849 3.94134 3.09849C2.02913 3.09849 0.477188 4.65893 0.477188 6.58162C0.477188 7.64746 0.955242 8.60184 1.70581 9.24041C0.927529 10.4897 0.477188 11.9642 0.477188 13.5479C0.477188 18.0365 4.09607 21.6752 8.5602 21.6752C13.0243 21.6752 16.6432 18.0365 16.6432 13.5479C16.6432 9.05929 13.0243 5.42058 8.5602 5.42058ZM11.7126 15.87C11.313 15.1757 10.5694 14.7089 9.71491 14.7089C8.86042 14.7089 8.11678 15.1757 7.71725 15.87C7.52095 15.5286 7.40548 15.1315 7.40548 14.7089C7.40548 13.4271 8.44011 12.3868 9.71491 12.3868C10.9897 12.3868 12.0243 13.4271 12.0243 14.7089C12.0243 15.1315 11.9089 15.5286 11.7126 15.87Z" fill="#999999"/>
</svg>
