<svg width="72" height="20" viewBox="0 0 72 20" fill="none" xmlns="http://www.w3.org/2000/svg">
<path d="M29.8109 14.2573H27.709L27.7228 13.1718H29.8109C30.5299 13.1718 31.1291 13.022 31.6085 12.7224C32.0879 12.4182 32.4474 11.9941 32.6871 11.4502C32.9314 10.9017 33.0535 10.261 33.0535 9.52811V8.91276C33.0535 8.33659 32.9844 7.82495 32.8461 7.37785C32.7078 6.92613 32.505 6.54586 32.2377 6.23703C31.9704 5.9236 31.6431 5.68621 31.2559 5.52489C30.8733 5.36356 30.4331 5.2829 29.9353 5.2829H27.6675V4.19048H29.9353C30.5945 4.19048 31.196 4.30111 31.7399 4.52235C32.2838 4.73899 32.7516 5.05473 33.1434 5.46958C33.5398 5.87981 33.8441 6.37762 34.0561 6.963C34.2681 7.54378 34.3741 8.19831 34.3741 8.92659V9.52811C34.3741 10.2564 34.2681 10.9132 34.0561 11.4986C33.8441 12.0794 33.5375 12.5749 33.1365 12.9851C32.7401 13.3954 32.2607 13.7111 31.6984 13.9323C31.1407 14.149 30.5115 14.2573 29.8109 14.2573ZM28.4212 4.19048V14.2573H27.0867V4.19048H28.4212ZM37.4647 7.95171V14.2573H36.1856V6.77633H37.4301L37.4647 7.95171ZM39.8016 6.73484L39.7947 7.92405C39.6887 7.90101 39.5873 7.88718 39.4905 7.88257C39.3983 7.87335 39.2923 7.86874 39.1725 7.86874C38.8775 7.86874 38.617 7.91484 38.3912 8.00702C38.1653 8.09921 37.974 8.22827 37.8173 8.39421C37.6606 8.56014 37.5361 8.75835 37.444 8.98881C37.3564 9.21467 37.2988 9.46358 37.2711 9.73553L36.9116 9.94295C36.9116 9.49123 36.9554 9.06717 37.0429 8.67077C37.1351 8.27436 37.2757 7.92405 37.4647 7.61984C37.6537 7.31101 37.8934 7.07132 38.1838 6.90078C38.4788 6.72562 38.8291 6.63805 39.2347 6.63805C39.3269 6.63805 39.4329 6.64957 39.5527 6.67262C39.6726 6.69105 39.7555 6.7118 39.8016 6.73484ZM40.5069 10.5998V10.4408C40.5069 9.90147 40.5852 9.40135 40.7419 8.94042C40.8987 8.47487 41.1245 8.07155 41.4195 7.73046C41.7145 7.38476 42.0717 7.11742 42.4912 6.92843C42.9106 6.73484 43.3808 6.63805 43.9017 6.63805C44.4271 6.63805 44.8996 6.73484 45.319 6.92843C45.7431 7.11742 46.1026 7.38476 46.3976 7.73046C46.6972 8.07155 46.9254 8.47487 47.0821 8.94042C47.2388 9.40135 47.3172 9.90147 47.3172 10.4408V10.5998C47.3172 11.1391 47.2388 11.6392 47.0821 12.1001C46.9254 12.5611 46.6972 12.9644 46.3976 13.3101C46.1026 13.6512 45.7454 13.9185 45.3259 14.1121C44.9111 14.3011 44.4409 14.3956 43.9155 14.3956C43.39 14.3956 42.9176 14.3011 42.4981 14.1121C42.0787 13.9185 41.7191 13.6512 41.4195 13.3101C41.1245 12.9644 40.8987 12.5611 40.7419 12.1001C40.5852 11.6392 40.5069 11.1391 40.5069 10.5998ZM41.786 10.4408V10.5998C41.786 10.9731 41.8298 11.3258 41.9173 11.6576C42.0049 11.9849 42.1363 12.2753 42.3114 12.5288C42.4912 12.7823 42.7147 12.9828 42.9821 13.1303C43.2494 13.2732 43.5606 13.3447 43.9155 13.3447C44.2658 13.3447 44.5723 13.2732 44.835 13.1303C45.1024 12.9828 45.3236 12.7823 45.4988 12.5288C45.6739 12.2753 45.8053 11.9849 45.8929 11.6576C45.9851 11.3258 46.0312 10.9731 46.0312 10.5998V10.4408C46.0312 10.072 45.9851 9.72401 45.8929 9.39674C45.8053 9.06487 45.6716 8.77217 45.4919 8.51866C45.3167 8.26054 45.0955 8.05773 44.8281 7.91023C44.5654 7.76273 44.2566 7.68898 43.9017 7.68898C43.5513 7.68898 43.2425 7.76273 42.9752 7.91023C42.7124 8.05773 42.4912 8.26054 42.3114 8.51866C42.1363 8.77217 42.0049 9.06487 41.9173 9.39674C41.8298 9.72401 41.786 10.072 41.786 10.4408ZM50.2003 8.21444V17.1335H48.9143V6.77633H50.0897L50.2003 8.21444ZM55.2407 10.4546V10.5998C55.2407 11.1437 55.1761 11.6484 55.0471 12.114C54.918 12.5749 54.729 12.9759 54.4801 13.317C54.2358 13.6581 53.9339 13.9231 53.5744 14.1121C53.2148 14.3011 52.8023 14.3956 52.3368 14.3956C51.862 14.3956 51.4425 14.3172 51.0784 14.1605C50.7143 14.0038 50.4054 13.7756 50.1519 13.476C49.8984 13.1764 49.6956 12.8169 49.5435 12.3974C49.396 11.978 49.2946 11.5055 49.2393 10.9801V10.2057C49.2946 9.65256 49.3983 9.15706 49.5504 8.71917C49.7025 8.28128 49.903 7.90792 50.1519 7.5991C50.4054 7.28566 50.712 7.04828 51.0715 6.88695C51.431 6.72101 51.8459 6.63805 52.316 6.63805C52.7862 6.63805 53.2033 6.73023 53.5675 6.91461C53.9316 7.09437 54.2381 7.35249 54.487 7.68898C54.7359 8.02546 54.9226 8.42878 55.0471 8.89893C55.1761 9.36448 55.2407 9.88303 55.2407 10.4546ZM53.9546 10.5998V10.4546C53.9546 10.0812 53.9155 9.73092 53.8371 9.40366C53.7587 9.07178 53.6366 8.78139 53.4707 8.53249C53.3093 8.27897 53.1019 8.08077 52.8484 7.93788C52.5949 7.79038 52.293 7.71663 51.9427 7.71663C51.62 7.71663 51.3388 7.77195 51.0992 7.88257C50.8641 7.99319 50.6636 8.143 50.4976 8.33198C50.3317 8.51636 50.1957 8.72839 50.0897 8.96807C49.9883 9.20315 49.9122 9.44744 49.8615 9.70096V11.4917C49.9537 11.8143 50.0828 12.1186 50.2487 12.4043C50.4147 12.6855 50.6359 12.9137 50.9125 13.0888C51.189 13.2594 51.537 13.3447 51.9565 13.3447C52.3022 13.3447 52.5995 13.2732 52.8484 13.1303C53.1019 12.9828 53.3093 12.7823 53.4707 12.5288C53.6366 12.2753 53.7587 11.9849 53.8371 11.6576C53.9155 11.3258 53.9546 10.9731 53.9546 10.5998ZM58.2621 3.63736V14.2573H56.9761V3.63736H58.2621ZM63.4199 14.3956C62.8991 14.3956 62.4266 14.308 62.0026 14.1328C61.5831 13.9531 61.2213 13.7019 60.9171 13.3792C60.6175 13.0566 60.387 12.674 60.2257 12.2315C60.0643 11.789 59.9837 11.305 59.9837 10.7795V10.4892C59.9837 9.88072 60.0736 9.33912 60.2533 8.86436C60.4331 8.38499 60.6774 7.97937 60.9862 7.64749C61.295 7.31562 61.6453 7.06441 62.0371 6.89386C62.4289 6.72332 62.8346 6.63805 63.254 6.63805C63.7887 6.63805 64.2496 6.73023 64.6368 6.91461C65.0286 7.09898 65.349 7.3571 65.5979 7.68898C65.8468 8.01624 66.0311 8.40343 66.151 8.85053C66.2708 9.29303 66.3308 9.77701 66.3308 10.3025V10.8763H60.7442V9.83233H65.0517V9.73553C65.0332 9.40366 64.9641 9.081 64.8442 8.76757C64.729 8.45413 64.5446 8.19601 64.2911 7.99319C64.0376 7.79038 63.6919 7.68898 63.254 7.68898C62.9636 7.68898 62.6963 7.7512 62.452 7.87566C62.2077 7.9955 61.998 8.17526 61.8228 8.41495C61.6477 8.65464 61.5117 8.94733 61.4149 9.29303C61.3181 9.63873 61.2697 10.0374 61.2697 10.4892V10.7795C61.2697 11.1345 61.3181 11.4686 61.4149 11.7821C61.5163 12.0909 61.6615 12.3629 61.8505 12.5979C62.0441 12.833 62.2768 13.0174 62.5488 13.1511C62.8253 13.2847 63.1388 13.3516 63.4891 13.3516C63.9408 13.3516 64.3234 13.2594 64.6368 13.075C64.9503 12.8906 65.2245 12.644 65.4596 12.3352L66.234 12.9506C66.0726 13.1948 65.8675 13.4276 65.6186 13.6489C65.3697 13.8701 65.0632 14.0499 64.699 14.1882C64.3395 14.3264 63.9131 14.3956 63.4199 14.3956ZM70.9562 6.77633V7.75812H66.9115V6.77633H70.9562ZM68.2805 4.95794H69.5596V12.4043C69.5596 12.6579 69.5988 12.8491 69.6771 12.9782C69.7555 13.1073 69.8569 13.1925 69.9814 13.234C70.1058 13.2755 70.2395 13.2963 70.3824 13.2963C70.4884 13.2963 70.599 13.287 70.7142 13.2686C70.8341 13.2455 70.924 13.2271 70.9839 13.2133L70.9908 14.2573C70.8894 14.2896 70.7557 14.3195 70.5898 14.3472C70.4285 14.3794 70.2326 14.3956 70.0021 14.3956C69.6887 14.3956 69.4006 14.3334 69.1378 14.2089C68.8751 14.0845 68.6654 13.877 68.5087 13.5866C68.3566 13.2916 68.2805 12.8952 68.2805 12.3974V4.95794Z" fill="#999999"/>
<path d="M1.92301 6.44846C7.1711 -2.7029 16.5211 0.123084 13.5839 9.6065C10.6467 19.0899 19.2734 10.0314 18.8574 15.5255C18.4414 21.0196 2.11713 20.597 7.36291 15.0982C12.6064 9.59953 13.2095 7.71167 7.81585 11.2505C2.42217 14.7894 -2.09567 13.4542 1.92301 6.44846Z" fill="#999999"/>
<path d="M1.92301 6.44846C7.1711 -2.7029 16.5211 0.123084 13.5839 9.6065C10.6467 19.0899 19.2734 10.0314 18.8574 15.5255C18.4414 21.0196 2.11713 20.597 7.36291 15.0982C12.6064 9.59953 13.2095 7.71167 7.81585 11.2505C2.42217 14.7894 -2.09567 13.4542 1.92301 6.44846Z" fill="#999999"/>
</svg>
