<svg width="90" height="20" viewBox="0 0 90 20" fill="none" xmlns="http://www.w3.org/2000/svg">
<path d="M34.544 8.90623V9.54233C34.544 10.2983 34.4495 10.9758 34.2605 11.575C34.0715 12.1743 33.7996 12.6836 33.4446 13.103C33.0897 13.5225 32.6634 13.8428 32.1655 14.0641C31.6723 14.2853 31.1192 14.396 30.5062 14.396C29.9116 14.396 29.3654 14.2853 28.8676 14.0641C28.3744 13.8428 27.9457 13.5225 27.5815 13.103C27.222 12.6836 26.9432 12.1743 26.745 11.575C26.5467 10.9758 26.4476 10.2983 26.4476 9.54233V8.90623C26.4476 8.1503 26.5444 7.47503 26.738 6.88043C26.9362 6.28121 27.2151 5.77188 27.5746 5.35243C27.9342 4.92837 28.3605 4.60571 28.8537 4.38446C29.3515 4.16321 29.8977 4.05259 30.4924 4.05259C31.1054 4.05259 31.6585 4.16321 32.1517 4.38446C32.6495 4.60571 33.0759 4.92837 33.4308 5.35243C33.7903 5.77188 34.0646 6.28121 34.2536 6.88043C34.4472 7.47503 34.544 8.1503 34.544 8.90623ZM33.2234 9.54233V8.89241C33.2234 8.29319 33.1612 7.76312 33.0367 7.30218C32.9169 6.84125 32.7394 6.45406 32.5043 6.14062C32.2693 5.82719 31.9812 5.58981 31.6401 5.42848C31.3036 5.26715 30.921 5.18649 30.4924 5.18649C30.0775 5.18649 29.7018 5.26715 29.3654 5.42848C29.0335 5.58981 28.7477 5.82719 28.508 6.14062C28.2729 6.45406 28.0909 6.84125 27.9618 7.30218C27.8328 7.76312 27.7682 8.29319 27.7682 8.89241V9.54233C27.7682 10.1462 27.8328 10.6808 27.9618 11.1464C28.0909 11.6073 28.2753 11.9968 28.5149 12.3148C28.7592 12.6283 29.0473 12.8657 29.3792 13.027C29.7157 13.1883 30.0913 13.269 30.5062 13.269C30.9395 13.269 31.3243 13.1883 31.6608 13.027C31.9973 12.8657 32.2808 12.6283 32.5112 12.3148C32.7463 11.9968 32.9238 11.6073 33.0436 11.1464C33.1635 10.6808 33.2234 10.1462 33.2234 9.54233ZM37.6276 8.21483V17.1339H36.3416V6.77672H37.517L37.6276 8.21483ZM42.6679 10.455V10.6002C42.6679 11.1441 42.6034 11.6488 42.4744 12.1143C42.3453 12.5753 42.1563 12.9763 41.9074 13.3174C41.6631 13.6585 41.3612 13.9235 41.0017 14.1125C40.6421 14.3015 40.2296 14.396 39.7641 14.396C39.2893 14.396 38.8698 14.3176 38.5057 14.1609C38.1416 14.0042 37.8327 13.776 37.5792 13.4764C37.3257 13.1768 37.1229 12.8173 36.9708 12.3978C36.8233 11.9784 36.7219 11.5059 36.6666 10.9804V10.2061C36.7219 9.65295 36.8256 9.15744 36.9777 8.71956C37.1298 8.28167 37.3303 7.90831 37.5792 7.59948C37.8327 7.28605 38.1393 7.04867 38.4988 6.88734C38.8583 6.7214 39.2732 6.63843 39.7433 6.63843C40.2135 6.63843 40.6306 6.73062 40.9948 6.915C41.3589 7.09476 41.6654 7.35288 41.9143 7.68937C42.1632 8.02585 42.3499 8.42917 42.4744 8.89932C42.6034 9.36487 42.6679 9.88342 42.6679 10.455ZM41.3819 10.6002V10.455C41.3819 10.0816 41.3428 9.73131 41.2644 9.40404C41.186 9.07217 41.0639 8.78178 40.898 8.53288C40.7366 8.27936 40.5292 8.08116 40.2757 7.93827C40.0222 7.79077 39.7203 7.71702 39.37 7.71702C39.0473 7.71702 38.7661 7.77233 38.5264 7.88296C38.2914 7.99358 38.0909 8.14339 37.9249 8.33237C37.759 8.51674 37.623 8.72877 37.517 8.96846C37.4156 9.20354 37.3395 9.44783 37.2888 9.70135V11.4921C37.381 11.8147 37.5101 12.119 37.676 12.4047C37.842 12.6859 38.0632 12.9141 38.3398 13.0892C38.6163 13.2598 38.9643 13.345 39.3838 13.345C39.7295 13.345 40.0268 13.2736 40.2757 13.1307C40.5292 12.9832 40.7366 12.7827 40.898 12.5292C41.0639 12.2757 41.186 11.9853 41.2644 11.658C41.3428 11.3261 41.3819 10.9735 41.3819 10.6002ZM47.4041 14.396C46.8832 14.396 46.4107 14.3084 45.9867 14.1332C45.5672 13.9535 45.2054 13.7023 44.9012 13.3796C44.6016 13.057 44.3711 12.6744 44.2098 12.2319C44.0485 11.7894 43.9678 11.3054 43.9678 10.7799V10.4895C43.9678 9.88111 44.0577 9.33951 44.2374 8.86475C44.4172 8.38538 44.6615 7.97976 44.9703 7.64788C45.2791 7.31601 45.6295 7.0648 46.0213 6.89425C46.413 6.72371 46.8187 6.63843 47.2381 6.63843C47.7728 6.63843 48.2337 6.73062 48.6209 6.915C49.0127 7.09937 49.3331 7.35749 49.582 7.68937C49.8309 8.01663 50.0153 8.40382 50.1351 8.85092C50.2549 9.29342 50.3149 9.7774 50.3149 10.3029V10.8767H44.7283V9.83271H49.0358V9.73592C49.0173 9.40404 48.9482 9.08139 48.8283 8.76795C48.7131 8.45452 48.5287 8.1964 48.2752 7.99358C48.0217 7.79077 47.676 7.68937 47.2381 7.68937C46.9477 7.68937 46.6804 7.75159 46.4361 7.87605C46.1918 7.99589 45.9821 8.17565 45.8069 8.41534C45.6318 8.65503 45.4958 8.94772 45.399 9.29342C45.3022 9.63912 45.2538 10.0378 45.2538 10.4895V10.7799C45.2538 11.1349 45.3022 11.469 45.399 11.7825C45.5004 12.0913 45.6456 12.3632 45.8346 12.5983C46.0282 12.8334 46.2609 13.0178 46.5329 13.1514C46.8095 13.2851 47.1229 13.352 47.4732 13.352C47.9249 13.352 48.3075 13.2598 48.6209 13.0754C48.9344 12.891 49.2086 12.6444 49.4437 12.3356L50.2181 12.9509C50.0567 13.1952 49.8516 13.428 49.6027 13.6493C49.3538 13.8705 49.0473 14.0503 48.6832 14.1886C48.3236 14.3268 47.8973 14.396 47.4041 14.396ZM53.0874 8.37386V14.2577H51.8083V6.77672H53.0182L53.0874 8.37386ZM52.7832 10.2337L52.2508 10.213C52.2554 9.70135 52.3315 9.22889 52.479 8.79561C52.6265 8.35772 52.8339 7.97745 53.1012 7.6548C53.3686 7.33214 53.6866 7.08324 54.0553 6.90808C54.4287 6.72832 54.8412 6.63843 55.293 6.63843C55.6617 6.63843 55.9936 6.68914 56.2886 6.79054C56.5836 6.88734 56.8348 7.04406 57.0422 7.2607C57.2542 7.47734 57.4156 7.75851 57.5262 8.10421C57.6368 8.4453 57.6921 8.86245 57.6921 9.35565V14.2577H56.4061V9.34182C56.4061 8.95002 56.3485 8.63659 56.2333 8.40151C56.118 8.16182 55.9498 7.98897 55.7285 7.88296C55.5073 7.77233 55.2353 7.71702 54.9127 7.71702C54.5946 7.71702 54.3043 7.78386 54.0415 7.91753C53.7834 8.0512 53.5598 8.23557 53.3709 8.47065C53.1865 8.70573 53.0413 8.97538 52.9353 9.27959C52.8339 9.5792 52.7832 9.89725 52.7832 10.2337ZM62.5527 14.2577H60.4508L60.4647 13.1722H62.5527C63.2717 13.1722 63.871 13.0224 64.3503 12.7228C64.8297 12.4186 65.1892 11.9945 65.4289 11.4506C65.6732 10.9021 65.7954 10.2614 65.7954 9.5285V8.91315C65.7954 8.33698 65.7262 7.82534 65.5879 7.37824C65.4497 6.92652 65.2469 6.54625 64.9795 6.23742C64.7122 5.92399 64.3849 5.6866 63.9977 5.52528C63.6151 5.36395 63.1749 5.28329 62.6771 5.28329H60.4093V4.19087H62.6771C63.3363 4.19087 63.9378 4.30149 64.4817 4.52274C65.0256 4.73938 65.4935 5.05512 65.8852 5.46996C66.2817 5.8802 66.5859 6.37801 66.7979 6.96339C67.0099 7.54417 67.1159 8.1987 67.1159 8.92698V9.5285C67.1159 10.2568 67.0099 10.9136 66.7979 11.499C66.5859 12.0798 66.2793 12.5753 65.8783 12.9855C65.4819 13.3957 65.0026 13.7115 64.4402 13.9327C63.8825 14.1494 63.2533 14.2577 62.5527 14.2577ZM61.163 4.19087V14.2577H59.8286V4.19087H61.163ZM68.5886 10.6002V10.4411C68.5886 9.90185 68.667 9.40174 68.8237 8.94081C68.9804 8.47526 69.2063 8.07194 69.5013 7.73085C69.7963 7.38515 70.1535 7.11781 70.573 6.92882C70.9924 6.73523 71.4626 6.63843 71.9834 6.63843C72.5089 6.63843 72.9813 6.73523 73.4008 6.92882C73.8249 7.11781 74.1844 7.38515 74.4794 7.73085C74.779 8.07194 75.0072 8.47526 75.1639 8.94081C75.3206 9.40174 75.3989 9.90185 75.3989 10.4411V10.6002C75.3989 11.1395 75.3206 11.6396 75.1639 12.1005C75.0072 12.5614 74.779 12.9648 74.4794 13.3105C74.1844 13.6516 73.8272 13.9189 73.4077 14.1125C72.9929 14.3015 72.5227 14.396 71.9972 14.396C71.4718 14.396 70.9993 14.3015 70.5799 14.1125C70.1604 13.9189 69.8009 13.6516 69.5013 13.3105C69.2063 12.9648 68.9804 12.5614 68.8237 12.1005C68.667 11.6396 68.5886 11.1395 68.5886 10.6002ZM69.8677 10.4411V10.6002C69.8677 10.9735 69.9115 11.3261 69.9991 11.658C70.0867 11.9853 70.218 12.2757 70.3932 12.5292C70.573 12.7827 70.7965 12.9832 71.0639 13.1307C71.3312 13.2736 71.6423 13.345 71.9972 13.345C72.3476 13.345 72.6541 13.2736 72.9168 13.1307C73.1842 12.9832 73.4054 12.7827 73.5806 12.5292C73.7557 12.2757 73.8871 11.9853 73.9747 11.658C74.0668 11.3261 74.1129 10.9735 74.1129 10.6002V10.4411C74.1129 10.0724 74.0668 9.72439 73.9747 9.39713C73.8871 9.06526 73.7534 8.77256 73.5736 8.51905C73.3985 8.26093 73.1772 8.05811 72.9099 7.91062C72.6472 7.76312 72.3383 7.68937 71.9834 7.68937C71.6331 7.68937 71.3243 7.76312 71.0569 7.91062C70.7942 8.05811 70.573 8.26093 70.3932 8.51905C70.218 8.77256 70.0867 9.06526 69.9991 9.39713C69.9115 9.72439 69.8677 10.0724 69.8677 10.4411ZM76.6642 10.6002V10.4411C76.6642 9.90185 76.7426 9.40174 76.8993 8.94081C77.056 8.47526 77.2819 8.07194 77.5769 7.73085C77.8719 7.38515 78.2291 7.11781 78.6485 6.92882C79.068 6.73523 79.5381 6.63843 80.059 6.63843C80.5845 6.63843 81.0569 6.73523 81.4764 6.92882C81.9004 7.11781 82.26 7.38515 82.555 7.73085C82.8546 8.07194 83.0827 8.47526 83.2395 8.94081C83.3962 9.40174 83.4745 9.90185 83.4745 10.4411V10.6002C83.4745 11.1395 83.3962 11.6396 83.2395 12.1005C83.0827 12.5614 82.8546 12.9648 82.555 13.3105C82.26 13.6516 81.9027 13.9189 81.4833 14.1125C81.0684 14.3015 80.5983 14.396 80.0728 14.396C79.5474 14.396 79.0749 14.3015 78.6555 14.1125C78.236 13.9189 77.8765 13.6516 77.5769 13.3105C77.2819 12.9648 77.056 12.5614 76.8993 12.1005C76.7426 11.6396 76.6642 11.1395 76.6642 10.6002ZM77.9433 10.4411V10.6002C77.9433 10.9735 77.9871 11.3261 78.0747 11.658C78.1623 11.9853 78.2936 12.2757 78.4688 12.5292C78.6485 12.7827 78.8721 12.9832 79.1394 13.1307C79.4068 13.2736 79.7179 13.345 80.0728 13.345C80.4231 13.345 80.7297 13.2736 80.9924 13.1307C81.2597 12.9832 81.481 12.7827 81.6561 12.5292C81.8313 12.2757 81.9627 11.9853 82.0502 11.658C82.1424 11.3261 82.1885 10.9735 82.1885 10.6002V10.4411C82.1885 10.0724 82.1424 9.72439 82.0502 9.39713C81.9627 9.06526 81.829 8.77256 81.6492 8.51905C81.4741 8.26093 81.2528 8.05811 80.9855 7.91062C80.7227 7.76312 80.4139 7.68937 80.059 7.68937C79.7087 7.68937 79.3999 7.76312 79.1325 7.91062C78.8698 8.05811 78.6485 8.26093 78.4688 8.51905C78.2936 8.77256 78.1623 9.06526 78.0747 9.39713C77.9871 9.72439 77.9433 10.0724 77.9433 10.4411ZM86.3577 7.9521V14.2577H85.0786V6.77672H86.3231L86.3577 7.9521ZM88.6946 6.73523L88.6877 7.92444C88.5817 7.9014 88.4803 7.88757 88.3835 7.88296C88.2913 7.87374 88.1853 7.86913 88.0654 7.86913C87.7704 7.86913 87.51 7.91522 87.2842 8.00741C87.0583 8.0996 86.867 8.22866 86.7103 8.3946C86.5536 8.56053 86.4291 8.75874 86.3369 8.9892C86.2494 9.21506 86.1917 9.46397 86.1641 9.73592L85.8046 9.94334C85.8046 9.49162 85.8483 9.06756 85.9359 8.67116C86.0281 8.27475 86.1687 7.92444 86.3577 7.62023C86.5467 7.3114 86.7863 7.07171 87.0767 6.90117C87.3717 6.72601 87.722 6.63843 88.1277 6.63843C88.2199 6.63843 88.3259 6.64996 88.4457 6.673C88.5656 6.69144 88.6485 6.71218 88.6946 6.73523Z" fill="#999999"/>
<path d="M11.7801 3.18404L18.661 0.86195L11.7801 10.1503L18.661 19.4387L11.7801 17.1166L18.661 0.86195V19.4387" fill="#999999"/>
<path d="M11.6971 3.18407H0.173645L11.6971 10.1503L0.173645 17.1166H11.6971L0.173645 3.18407V17.1166" fill="#999999"/>
</svg>
