<svg width="61" height="22" viewBox="0 0 61 22" fill="none" xmlns="http://www.w3.org/2000/svg">
<path d="M32.685 19.8673V8.82924L32.8219 7.04946H34.2765V19.8673H32.685ZM26.4643 11.7813V11.6016C26.4643 10.8942 26.547 10.2525 26.7124 9.67635C26.8778 9.0945 27.1203 8.59536 27.4397 8.17894C27.7592 7.76251 28.1442 7.44307 28.5949 7.22059C29.0512 6.99242 29.5703 6.87833 30.1522 6.87833C30.734 6.87833 31.2446 6.98101 31.6838 7.18637C32.1288 7.38602 32.5053 7.6798 32.8133 8.0677C33.127 8.4499 33.3752 8.91195 33.5577 9.45388C33.7403 9.9958 33.8658 10.609 33.9342 11.2936V12.0808C33.8715 12.7596 33.7488 13.37 33.5663 13.9119C33.3837 14.4538 33.1356 14.9159 32.8219 15.2981C32.5138 15.6803 32.1345 15.974 31.6838 16.1794C31.2389 16.379 30.7226 16.4789 30.1351 16.4789C29.5646 16.4789 29.0512 16.3619 28.5949 16.1281C28.1442 15.8942 27.7592 15.5662 27.4397 15.144C27.126 14.7219 26.8836 14.2256 26.7124 13.6552C26.547 13.079 26.4643 12.4544 26.4643 11.7813ZM28.0558 11.6016V11.7813C28.0558 12.2433 28.1043 12.6797 28.2013 13.0904C28.2983 13.4955 28.4466 13.8548 28.6462 14.1686C28.8516 14.4823 29.1083 14.7305 29.4163 14.913C29.7301 15.0898 30.1008 15.1783 30.5287 15.1783C31.0535 15.1783 31.4899 15.0642 31.8378 14.836C32.1915 14.6078 32.4739 14.3083 32.685 13.9376C32.896 13.5611 33.0586 13.1589 33.1727 12.7311V10.6689C33.1099 10.3552 33.0101 10.05 32.8732 9.75336C32.742 9.45673 32.5709 9.19147 32.3598 8.95759C32.1487 8.718 31.892 8.52976 31.5897 8.39285C31.2931 8.25024 30.9451 8.17894 30.5458 8.17894C30.1123 8.17894 29.7386 8.27021 29.4249 8.45275C29.1111 8.63529 28.8516 8.88628 28.6462 9.20573C28.4466 9.51948 28.2983 9.88171 28.2013 10.2924C28.1043 10.7031 28.0558 11.1395 28.0558 11.6016ZM38.4008 8.50409V16.3077H36.8178V7.04946H38.358L38.4008 8.50409ZM41.2929 6.99812L41.2844 8.46986C41.1532 8.44134 41.0277 8.42423 40.9079 8.41852C40.7938 8.40711 40.6626 8.40141 40.5143 8.40141C40.1492 8.40141 39.8269 8.45845 39.5474 8.57254C39.2679 8.68663 39.0311 8.84635 38.8372 9.05171C38.6432 9.25707 38.4892 9.50236 38.3751 9.78758C38.2667 10.0671 38.1954 10.3751 38.1612 10.7117L37.7163 10.9684C37.7163 10.4094 37.7705 9.88456 37.8788 9.39398C37.9929 8.9034 38.1669 8.46986 38.4008 8.09337C38.6347 7.71117 38.9313 7.41454 39.2907 7.20348C39.6558 6.98671 40.0893 6.87833 40.5913 6.87833C40.7054 6.87833 40.8366 6.89259 40.9849 6.92111C41.1332 6.94393 41.2359 6.9696 41.2929 6.99812ZM46.29 15.1783C46.6665 15.1783 47.0145 15.1013 47.3339 14.9472C47.6534 14.7932 47.9158 14.5822 48.1211 14.314C48.3265 14.0402 48.4434 13.7293 48.472 13.3814H49.9779C49.9494 13.929 49.764 14.4395 49.4217 14.913C49.0852 15.3808 48.6431 15.7601 48.0955 16.051C47.5478 16.3363 46.946 16.4789 46.29 16.4789C45.5941 16.4789 44.9865 16.3562 44.4674 16.1109C43.954 15.8657 43.5262 15.5291 43.184 15.1013C42.8474 14.6734 42.5935 14.1828 42.4224 13.6295C42.257 13.0705 42.1743 12.4801 42.1743 11.8583V11.4989C42.1743 10.8771 42.257 10.2896 42.4224 9.73624C42.5935 9.17721 42.8474 8.68378 43.184 8.25595C43.5262 7.82811 43.954 7.49155 44.4674 7.24626C44.9865 7.00097 45.5941 6.87833 46.29 6.87833C47.0145 6.87833 47.6477 7.02664 48.1896 7.32327C48.7315 7.6142 49.1565 8.01351 49.4645 8.5212C49.7783 9.02319 49.9494 9.59363 49.9779 10.2325H48.472C48.4434 9.85033 48.335 9.50522 48.1468 9.19718C47.9643 8.88914 47.7133 8.64385 47.3938 8.46131C47.0801 8.27306 46.7121 8.17894 46.29 8.17894C45.8051 8.17894 45.3973 8.27591 45.0664 8.46986C44.7413 8.65811 44.4817 8.91481 44.2878 9.23996C44.0995 9.55941 43.9626 9.91593 43.877 10.3095C43.7972 10.6974 43.7572 11.0939 43.7572 11.4989V11.8583C43.7572 12.2633 43.7972 12.6626 43.877 13.0562C43.9569 13.4498 44.091 13.8064 44.2792 14.1258C44.4732 14.4452 44.7327 14.7019 45.0579 14.8959C45.3887 15.0841 45.7994 15.1783 46.29 15.1783ZM51.3384 11.7813V11.5845C51.3384 10.9171 51.4354 10.2981 51.6294 9.72769C51.8233 9.15154 52.1028 8.6524 52.4679 8.23028C52.833 7.80244 53.2751 7.47159 53.7942 7.23771C54.3133 6.99812 54.8951 6.87833 55.5397 6.87833C56.19 6.87833 56.7747 6.99812 57.2938 7.23771C57.8187 7.47159 58.2636 7.80244 58.6287 8.23028C58.9995 8.6524 59.2818 9.15154 59.4758 9.72769C59.6697 10.2981 59.7667 10.9171 59.7667 11.5845V11.7813C59.7667 12.4487 59.6697 13.0676 59.4758 13.6381C59.2818 14.2085 58.9995 14.7077 58.6287 15.1355C58.2636 15.5576 57.8215 15.8885 57.3024 16.1281C56.789 16.3619 56.2072 16.4789 55.5568 16.4789C54.9065 16.4789 54.3218 16.3619 53.8027 16.1281C53.2836 15.8885 52.8387 15.5576 52.4679 15.1355C52.1028 14.7077 51.8233 14.2085 51.6294 13.6381C51.4354 13.0676 51.3384 12.4487 51.3384 11.7813ZM52.9214 11.5845V11.7813C52.9214 12.2433 52.9756 12.6797 53.084 13.0904C53.1924 13.4955 53.3549 13.8548 53.5717 14.1686C53.7942 14.4823 54.0708 14.7305 54.4017 14.913C54.7326 15.0898 55.1176 15.1783 55.5568 15.1783C55.9904 15.1783 56.3697 15.0898 56.6949 14.913C57.0257 14.7305 57.2996 14.4823 57.5163 14.1686C57.7331 13.8548 57.8957 13.4955 58.004 13.0904C58.1181 12.6797 58.1752 12.2433 58.1752 11.7813V11.5845C58.1752 11.1281 58.1181 10.6974 58.004 10.2924C57.8957 9.88171 57.7302 9.51948 57.5078 9.20573C57.291 8.88628 57.0172 8.63529 56.6863 8.45275C56.3612 8.27021 55.979 8.17894 55.5397 8.17894C55.1062 8.17894 54.724 8.27021 54.3931 8.45275C54.068 8.63529 53.7942 8.88628 53.5717 9.20573C53.3549 9.51948 53.1924 9.88171 53.084 10.2924C52.9756 10.6974 52.9214 11.1281 52.9214 11.5845Z" fill="#999999"/>
<path d="M7.08097 2.82562H0.200134V9.79187H7.08097V2.82562Z" fill="#999999"/>
<path d="M11.7236 2.82562H9.48532V7.46981H11.7236V2.82562Z" fill="#999999"/>
<path d="M18.6875 2.82562H14.1279V9.79187H18.6875V2.82562Z" fill="#999999"/>
<path d="M14.0449 9.79182H7.16403V21.4023H14.0449V9.79182Z" fill="#999999"/>
<path d="M4.75968 16.758H0.200134V21.4022H4.75968V16.758Z" fill="#999999"/>
<path d="M4.75968 12.1139H0.200134V14.436H4.75968V12.1139Z" fill="#999999"/>
<path opacity="0.8902" d="M18.6875 16.758H16.4492V21.4022H18.6875V16.758Z" fill="#999999"/>
<path d="M18.6875 12.1139H16.4492V14.436H18.6875V12.1139Z" fill="#999999"/>
</svg>
