<svg width="8" height="9" viewBox="0 0 8 9" fill="none" xmlns="http://www.w3.org/2000/svg">
<path d="M3.82895 0.482885C4.27704 0.475952 4.72256 0.480061 5.16756 0.475952C5.19452 1.00005 5.383 1.5339 5.76664 1.90444C6.1495 2.28422 6.69105 2.45806 7.21797 2.51686V3.89553C6.72418 3.87935 6.22807 3.77664 5.77999 3.56402C5.58483 3.47569 5.40303 3.36193 5.22508 3.24561C5.22277 4.24604 5.22919 5.24518 5.21866 6.2415C5.19196 6.72014 5.03403 7.19647 4.75568 7.59089C4.30785 8.24749 3.53057 8.67554 2.73223 8.68889C2.24255 8.71688 1.75338 8.58336 1.3361 8.33736C0.644589 7.92959 0.157985 7.18312 0.0871131 6.38196C0.0788961 6.21068 0.0760714 6.03967 0.0830046 5.8725C0.144632 5.22104 0.466895 4.59783 0.967108 4.17388C1.53408 3.68009 2.32831 3.44488 3.07196 3.58405C3.07889 4.0912 3.0586 4.59783 3.0586 5.10498C2.71888 4.99507 2.32189 5.02589 2.02505 5.23208C1.80833 5.37254 1.64373 5.58773 1.55797 5.83116C1.48709 6.00474 1.50738 6.19759 1.51149 6.38196C1.59289 6.9438 2.13316 7.41602 2.70989 7.36492C3.09224 7.36081 3.45867 7.13895 3.65794 6.81412C3.72239 6.70037 3.79454 6.58405 3.7984 6.45026C3.83203 5.83784 3.81868 5.22798 3.82279 4.61555C3.82561 3.23534 3.81868 1.85898 3.82921 0.483142L3.82895 0.482885Z" fill="#999999"/>
</svg>
