<svg width="9" height="7" viewBox="0 0 9 7" fill="none" xmlns="http://www.w3.org/2000/svg">
<path d="M2.6225 6.73898C5.72312 6.73898 7.41903 4.17016 7.41903 1.9425C7.41903 1.86954 7.41903 1.7969 7.4141 1.7246C7.74403 1.48596 8.02882 1.19048 8.25516 0.852001C7.94749 0.98833 7.62111 1.07773 7.28691 1.11723C7.63883 0.906552 7.90221 0.575193 8.02805 0.184818C7.69714 0.381179 7.33511 0.519564 6.95759 0.594002C6.70342 0.323738 6.36726 0.144777 6.00113 0.0848112C5.635 0.0248453 5.25932 0.087218 4.93221 0.262277C4.6051 0.437337 4.34481 0.715323 4.19161 1.05322C4.03841 1.39112 4.00085 1.77008 4.08473 2.13148C3.4145 2.09788 2.75883 1.92371 2.16028 1.62028C1.56173 1.31684 1.03369 0.890928 0.61042 0.370183C0.394846 0.741295 0.32882 1.18062 0.425786 1.5987C0.522751 2.01678 0.775417 2.38219 1.13234 2.62053C0.864064 2.61257 0.601638 2.54021 0.367208 2.40953C0.367208 2.41643 0.367208 2.42366 0.367208 2.43089C0.367315 2.82009 0.502047 3.19728 0.748552 3.49848C0.995057 3.79967 1.33816 4.00633 1.71966 4.0834C1.47148 4.15108 1.21108 4.16098 0.958476 4.11232C1.0662 4.44728 1.27592 4.7402 1.55831 4.9501C1.8407 5.16001 2.18164 5.2764 2.53344 5.28301C1.93649 5.75215 1.19908 6.00683 0.439843 6.00606C0.305716 6.00581 0.17172 5.99769 0.0385437 5.98174C0.809471 6.47647 1.70649 6.73889 2.6225 6.73766" fill="#999999"/>
</svg>
